<?xml version="1.0" encoding="utf-8" standalone="no"?>
<!DOCTYPE svg PUBLIC "-//W3C//DTD SVG 1.1//EN"
  "http://www.w3.org/Graphics/SVG/1.1/DTD/svg11.dtd">
<!-- Created with matplotlib (http://matplotlib.org/) -->
<svg height="345pt" version="1.1" viewBox="0 0 460 345" width="460pt" xmlns="http://www.w3.org/2000/svg" xmlns:xlink="http://www.w3.org/1999/xlink">
 <defs>
  <style type="text/css">
*{stroke-linecap:butt;stroke-linejoin:round;}
  </style>
 </defs>
 <g id="figure_1">
  <g id="patch_1">
   <path d="M 0 345.6 
L 460.8 345.6 
L 460.8 0 
L 0 0 
z
" style="fill:#ffffff;"/>
  </g>
  <g id="axes_1">
   <g id="patch_2">
    <path d="M 57.6 307.584 
L 414.72 307.584 
L 414.72 41.472 
L 57.6 41.472 
z
" style="fill:#ffffff;"/>
   </g>
   <g id="PolyCollection_1">
    <path clip-path="url(#pdcc634dc35)" d="M 73.832727 92.006286 
L 73.832727 100.637435 
L 75.48072 98.166179 
L 77.128713 111.7857 
L 78.776705 107.396425 
L 80.424698 127.1711 
L 82.07269 145.251366 
L 83.720683 155.600454 
L 85.368676 160.276646 
L 87.016668 143.911322 
L 88.664661 151.526025 
L 90.312653 156.990164 
L 91.960646 166.081574 
L 93.608639 177.331715 
L 95.256631 184.272965 
L 96.904624 209.776251 
L 98.552617 219.141581 
L 100.200609 231.109976 
L 101.848602 236.54528 
L 103.496594 248.655432 
L 105.144587 262.998335 
L 106.79258 266.175035 
L 108.440572 267.197202 
L 110.088565 268.411297 
L 111.736557 265.415576 
L 113.38455 266.339605 
L 115.032543 267.704723 
L 116.680535 273.267141 
L 118.328528 278.50321 
L 119.976521 278.74209 
L 121.624513 281.82984 
L 123.272506 282.968218 
L 124.920498 283.488708 
L 126.568491 283.557099 
L 128.216484 280.166595 
L 129.864476 281.031854 
L 131.512469 281.74185 
L 133.160461 282.682823 
L 134.808454 283.141048 
L 136.456447 283.690852 
L 138.104439 284.487441 
L 139.752432 281.484335 
L 141.400425 279.636787 
L 143.048417 274.268824 
L 144.69641 266.300187 
L 146.344402 247.545131 
L 147.992395 228.384414 
L 149.640388 209.450327 
L 151.28838 192.48208 
L 152.936373 166.641683 
L 154.584365 146.767741 
L 156.232358 137.766199 
L 157.880351 117.763252 
L 159.528343 113.454851 
L 161.176336 98.868915 
L 162.824329 101.171619 
L 164.472321 93.928817 
L 166.120314 89.145836 
L 167.768306 77.904261 
L 169.416299 75.086505 
L 171.064292 69.749492 
L 172.712284 69.917017 
L 174.360277 70.342411 
L 176.008269 62.637988 
L 177.656262 85.289496 
L 179.304255 86.347885 
L 180.952247 100.088815 
L 182.60024 102.095388 
L 184.248233 107.010866 
L 185.896225 128.821835 
L 187.544218 132.426049 
L 189.19221 132.400152 
L 190.840203 135.407581 
L 192.488196 143.209121 
L 194.136188 160.053695 
L 195.784181 166.762451 
L 197.432174 175.349062 
L 199.080166 185.487343 
L 200.728159 188.801177 
L 202.376151 198.308437 
L 204.024144 202.873672 
L 205.672137 215.992037 
L 207.320129 218.264028 
L 208.968122 227.203953 
L 210.616114 232.86383 
L 212.264107 229.401179 
L 213.9121 232.196854 
L 215.560092 230.821907 
L 217.208085 232.639091 
L 218.856078 225.108994 
L 220.50407 231.32478 
L 222.152063 242.247198 
L 223.800055 245.156933 
L 225.448048 246.315235 
L 227.096041 256.692811 
L 228.744033 266.464272 
L 230.392026 269.595566 
L 232.040018 270.688496 
L 233.688011 270.39472 
L 235.336004 271.918706 
L 236.983996 272.157883 
L 238.631989 272.610175 
L 240.279982 275.7577 
L 241.927974 279.141585 
L 243.575967 282.644787 
L 245.223959 284.818238 
L 246.871952 286.439542 
L 248.519945 288.274613 
L 250.167937 288.094994 
L 251.81593 287.585924 
L 253.463922 287.51895 
L 255.111915 288.482743 
L 256.759908 287.959616 
L 258.4079 285.291381 
L 260.055893 284.1512 
L 261.703886 281.251935 
L 263.351878 275.118335 
L 264.999871 268.078884 
L 266.647863 258.502259 
L 268.295856 248.973235 
L 269.943849 230.816006 
L 271.591841 223.474304 
L 273.239834 213.019813 
L 274.887826 200.866835 
L 276.535819 188.92087 
L 278.183812 186.897544 
L 279.831804 182.589812 
L 281.479797 159.330509 
L 283.12779 162.967055 
L 284.775782 157.003636 
L 286.423775 151.360572 
L 288.071767 131.416288 
L 289.71976 130.65693 
L 291.367753 149.083227 
L 293.015745 137.07418 
L 294.663738 126.807529 
L 296.311731 129.555829 
L 297.959723 164.087975 
L 299.607716 157.069602 
L 301.255708 124.736042 
L 302.903701 136.05669 
L 304.551694 155.565817 
L 306.199686 151.648253 
L 307.847679 125.864917 
L 309.495671 142.955063 
L 311.143664 174.246035 
L 312.791657 167.974722 
L 314.439649 164.583369 
L 316.087642 154.527147 
L 317.735635 170.634684 
L 319.383627 168.761838 
L 321.03162 155.214793 
L 322.679612 162.820862 
L 324.327605 170.664302 
L 325.975598 199.654739 
L 327.62359 187.921747 
L 329.271583 186.387344 
L 330.919575 202.88221 
L 332.567568 213.359553 
L 334.215561 218.058926 
L 335.863553 224.069162 
L 337.511546 238.29635 
L 339.159539 256.907256 
L 340.807531 263.877891 
L 342.455524 264.101317 
L 344.103516 268.849432 
L 345.751509 273.734698 
L 347.399502 282.412245 
L 349.047494 283.380851 
L 350.695487 285.155209 
L 352.343479 287.415841 
L 353.991472 287.755782 
L 355.639465 287.884349 
L 357.287457 287.401484 
L 358.93545 286.937887 
L 360.583443 286.680487 
L 362.231435 287.662023 
L 363.879428 288.626844 
L 365.52742 289.2502 
L 367.175413 290.037478 
L 368.823406 290.349345 
L 370.471398 290.234661 
L 372.119391 287.791373 
L 373.767383 285.418724 
L 375.415376 283.0914 
L 377.063369 279.740034 
L 378.711361 272.948069 
L 380.359354 259.403173 
L 382.007347 244.638699 
L 383.655339 219.856026 
L 385.303332 187.400516 
L 386.951324 170.882731 
L 388.599317 166.286919 
L 390.24731 157.826495 
L 391.895302 141.059568 
L 393.543295 145.939174 
L 395.191287 159.933718 
L 396.83928 153.80385 
L 398.487273 139.541701 
L 398.487273 131.628565 
L 398.487273 131.628565 
L 396.83928 145.115846 
L 395.191287 152.245278 
L 393.543295 136.528521 
L 391.895302 132.556967 
L 390.24731 150.502313 
L 388.599317 159.032786 
L 386.951324 162.97694 
L 385.303332 177.774758 
L 383.655339 206.192158 
L 382.007347 237.823504 
L 380.359354 251.459431 
L 378.711361 268.320459 
L 377.063369 275.373931 
L 375.415376 278.572089 
L 373.767383 280.778233 
L 372.119391 283.00166 
L 370.471398 285.11018 
L 368.823406 285.154241 
L 367.175413 284.750151 
L 365.52742 284.005748 
L 363.879428 283.397923 
L 362.231435 282.44134 
L 360.583443 281.708332 
L 358.93545 282.022952 
L 357.287457 282.415867 
L 355.639465 282.834786 
L 353.991472 282.64245 
L 352.343479 281.950773 
L 350.695487 279.927521 
L 349.047494 278.308881 
L 347.399502 275.84158 
L 345.751509 268.18313 
L 344.103516 263.608978 
L 342.455524 259.369752 
L 340.807531 257.253697 
L 339.159539 246.714226 
L 337.511546 227.773843 
L 335.863553 216.588176 
L 334.215561 210.15379 
L 332.567568 205.283912 
L 330.919575 193.474564 
L 329.271583 177.824183 
L 327.62359 177.361927 
L 325.975598 186.884322 
L 324.327605 163.528624 
L 322.679612 154.186482 
L 321.03162 146.941156 
L 319.383627 160.684902 
L 317.735635 161.824151 
L 316.087642 146.638649 
L 314.439649 157.660001 
L 312.791657 158.553322 
L 311.143664 164.91781 
L 309.495671 132.334162 
L 307.847679 117.692293 
L 306.199686 139.168222 
L 304.551694 146.83756 
L 302.903701 127.13154 
L 301.255708 116.00961 
L 299.607716 142.288162 
L 297.959723 151.947179 
L 296.311731 121.606378 
L 294.663738 118.098122 
L 293.015745 128.352694 
L 291.367753 140.609249 
L 289.71976 119.943873 
L 288.071767 120.66109 
L 286.423775 144.163254 
L 284.775782 149.493602 
L 283.12779 154.937006 
L 281.479797 150.529969 
L 279.831804 175.385606 
L 278.183812 179.389874 
L 276.535819 181.737927 
L 274.887826 193.760797 
L 273.239834 206.198761 
L 271.591841 216.998404 
L 269.943849 222.267877 
L 268.295856 242.18473 
L 266.647863 253.363185 
L 264.999871 263.286572 
L 263.351878 270.579491 
L 261.703886 276.776651 
L 260.055893 279.470658 
L 258.4079 280.627281 
L 256.759908 283.020838 
L 255.111915 283.280804 
L 253.463922 282.418019 
L 251.81593 282.645227 
L 250.167937 283.06374 
L 248.519945 282.8772 
L 246.871952 281.128927 
L 245.223959 279.47813 
L 243.575967 277.159932 
L 241.927974 273.92628 
L 240.279982 270.679841 
L 238.631989 268.113352 
L 236.983996 267.681569 
L 235.336004 267.208848 
L 233.688011 265.97792 
L 232.040018 266.072962 
L 230.392026 264.531203 
L 228.744033 259.341349 
L 227.096041 248.949018 
L 225.448048 240.740443 
L 223.800055 238.932905 
L 222.152063 233.857265 
L 220.50407 223.173729 
L 218.856078 218.175543 
L 217.208085 226.329671 
L 215.560092 224.400544 
L 213.9121 225.659303 
L 212.264107 223.231661 
L 210.616114 225.758064 
L 208.968122 218.494243 
L 207.320129 210.89889 
L 205.672137 206.483812 
L 204.024144 195.517494 
L 202.376151 189.193753 
L 200.728159 181.572944 
L 199.080166 177.427073 
L 197.432174 167.955446 
L 195.784181 158.441164 
L 194.136188 151.46912 
L 192.488196 134.85385 
L 190.840203 127.956808 
L 189.19221 124.726147 
L 187.544218 121.509302 
L 185.896225 120.358133 
L 184.248233 98.440153 
L 182.60024 92.769834 
L 180.952247 91.517385 
L 179.304255 77.304606 
L 177.656262 74.480253 
L 176.008269 53.568 
L 174.360277 61.233632 
L 172.712284 60.071737 
L 171.064292 60.714205 
L 169.416299 65.947881 
L 167.768306 69.246214 
L 166.120314 80.712113 
L 164.472321 85.685593 
L 162.824329 92.178188 
L 161.176336 90.47865 
L 159.528343 104.513504 
L 157.880351 109.48449 
L 156.232358 129.91351 
L 154.584365 138.513062 
L 152.936373 157.813396 
L 151.28838 184.212836 
L 149.640388 201.235577 
L 147.992395 220.60009 
L 146.344402 236.637913 
L 144.69641 260.903168 
L 143.048417 269.826544 
L 141.400425 275.224724 
L 139.752432 276.975513 
L 138.104439 279.541312 
L 136.456447 278.7793 
L 134.808454 278.292457 
L 133.160461 277.730995 
L 131.512469 276.9741 
L 129.864476 276.196536 
L 128.216484 275.744226 
L 126.568491 278.765912 
L 124.920498 278.552873 
L 123.272506 278.014771 
L 121.624513 276.452248 
L 119.976521 274.059367 
L 118.328528 272.969053 
L 116.680535 267.652911 
L 115.032543 262.956904 
L 113.38455 261.759486 
L 111.736557 261.057321 
L 110.088565 263.855516 
L 108.440572 262.478297 
L 106.79258 260.852598 
L 105.144587 254.758614 
L 103.496594 239.323648 
L 101.848602 229.177101 
L 100.200609 221.2515 
L 98.552617 210.452353 
L 96.904624 198.69574 
L 95.256631 175.241333 
L 93.608639 169.93257 
L 91.960646 158.695195 
L 90.312653 149.453684 
L 88.664661 143.235677 
L 87.016668 135.420267 
L 85.368676 151.696186 
L 83.720683 147.608629 
L 82.07269 137.05334 
L 80.424698 117.076351 
L 78.776705 97.525953 
L 77.128713 101.707791 
L 75.48072 89.040847 
L 73.832727 92.006286 
z
" style="fill:#008000;fill-opacity:0.4;"/>
   </g>
   <g id="matplotlib.axis_1">
    <g id="xtick_1">
     <g id="line2d_1">
      <defs>
       <path d="M 0 0 
L 0 3.5 
" id="m4c08995916" style="stroke:#000000;stroke-width:0.8;"/>
      </defs>
      <g>
       <use style="stroke:#000000;stroke-width:0.8;" x="73.832727" xlink:href="#m4c08995916" y="307.584"/>
      </g>
     </g>
     <g id="text_1">
      <!-- 0.0 -->
      <defs>
       <path d="M 31.78125 66.40625 
Q 24.171875 66.40625 20.328125 58.90625 
Q 16.5 51.421875 16.5 36.375 
Q 16.5 21.390625 20.328125 13.890625 
Q 24.171875 6.390625 31.78125 6.390625 
Q 39.453125 6.390625 43.28125 13.890625 
Q 47.125 21.390625 47.125 36.375 
Q 47.125 51.421875 43.28125 58.90625 
Q 39.453125 66.40625 31.78125 66.40625 
M 31.78125 74.21875 
Q 44.046875 74.21875 50.515625 64.515625 
Q 56.984375 54.828125 56.984375 36.375 
Q 56.984375 17.96875 50.515625 8.265625 
Q 44.046875 -1.421875 31.78125 -1.421875 
Q 19.53125 -1.421875 13.0625 8.265625 
Q 6.59375 17.96875 6.59375 36.375 
Q 6.59375 54.828125 13.0625 64.515625 
Q 19.53125 74.21875 31.78125 74.21875 
" id="DejaVuSans-30"/>
       <path d="M 10.6875 12.40625 
L 21 12.40625 
L 21 0 
L 10.6875 0 
z
" id="DejaVuSans-2e"/>
      </defs>
      <g transform="translate(65.881165 322.182437)scale(0.1 -0.1)">
       <use xlink:href="#DejaVuSans-30"/>
       <use x="63.623047" xlink:href="#DejaVuSans-2e"/>
       <use x="95.410156" xlink:href="#DejaVuSans-30"/>
      </g>
     </g>
    </g>
    <g id="xtick_2">
     <g id="line2d_2">
      <g>
       <use style="stroke:#000000;stroke-width:0.8;" x="138.763636" xlink:href="#m4c08995916" y="307.584"/>
      </g>
     </g>
     <g id="text_2">
      <!-- 0.2 -->
      <defs>
       <path d="M 19.1875 8.296875 
L 53.609375 8.296875 
L 53.609375 0 
L 7.328125 0 
L 7.328125 8.296875 
Q 12.9375 14.109375 22.625 23.890625 
Q 32.328125 33.6875 34.8125 36.53125 
Q 39.546875 41.84375 41.421875 45.53125 
Q 43.3125 49.21875 43.3125 52.78125 
Q 43.3125 58.59375 39.234375 62.25 
Q 35.15625 65.921875 28.609375 65.921875 
Q 23.96875 65.921875 18.8125 64.3125 
Q 13.671875 62.703125 7.8125 59.421875 
L 7.8125 69.390625 
Q 13.765625 71.78125 18.9375 73 
Q 24.125 74.21875 28.421875 74.21875 
Q 39.75 74.21875 46.484375 68.546875 
Q 53.21875 62.890625 53.21875 53.421875 
Q 53.21875 48.921875 51.53125 44.890625 
Q 49.859375 40.875 45.40625 35.40625 
Q 44.1875 33.984375 37.640625 27.21875 
Q 31.109375 20.453125 19.1875 8.296875 
" id="DejaVuSans-32"/>
      </defs>
      <g transform="translate(130.812074 322.182437)scale(0.1 -0.1)">
       <use xlink:href="#DejaVuSans-30"/>
       <use x="63.623047" xlink:href="#DejaVuSans-2e"/>
       <use x="95.410156" xlink:href="#DejaVuSans-32"/>
      </g>
     </g>
    </g>
    <g id="xtick_3">
     <g id="line2d_3">
      <g>
       <use style="stroke:#000000;stroke-width:0.8;" x="203.694545" xlink:href="#m4c08995916" y="307.584"/>
      </g>
     </g>
     <g id="text_3">
      <!-- 0.4 -->
      <defs>
       <path d="M 37.796875 64.3125 
L 12.890625 25.390625 
L 37.796875 25.390625 
z
M 35.203125 72.90625 
L 47.609375 72.90625 
L 47.609375 25.390625 
L 58.015625 25.390625 
L 58.015625 17.1875 
L 47.609375 17.1875 
L 47.609375 0 
L 37.796875 0 
L 37.796875 17.1875 
L 4.890625 17.1875 
L 4.890625 26.703125 
z
" id="DejaVuSans-34"/>
      </defs>
      <g transform="translate(195.742983 322.182437)scale(0.1 -0.1)">
       <use xlink:href="#DejaVuSans-30"/>
       <use x="63.623047" xlink:href="#DejaVuSans-2e"/>
       <use x="95.410156" xlink:href="#DejaVuSans-34"/>
      </g>
     </g>
    </g>
    <g id="xtick_4">
     <g id="line2d_4">
      <g>
       <use style="stroke:#000000;stroke-width:0.8;" x="268.625455" xlink:href="#m4c08995916" y="307.584"/>
      </g>
     </g>
     <g id="text_4">
      <!-- 0.6 -->
      <defs>
       <path d="M 33.015625 40.375 
Q 26.375 40.375 22.484375 35.828125 
Q 18.609375 31.296875 18.609375 23.390625 
Q 18.609375 15.53125 22.484375 10.953125 
Q 26.375 6.390625 33.015625 6.390625 
Q 39.65625 6.390625 43.53125 10.953125 
Q 47.40625 15.53125 47.40625 23.390625 
Q 47.40625 31.296875 43.53125 35.828125 
Q 39.65625 40.375 33.015625 40.375 
M 52.59375 71.296875 
L 52.59375 62.3125 
Q 48.875 64.0625 45.09375 64.984375 
Q 41.3125 65.921875 37.59375 65.921875 
Q 27.828125 65.921875 22.671875 59.328125 
Q 17.53125 52.734375 16.796875 39.40625 
Q 19.671875 43.65625 24.015625 45.921875 
Q 28.375 48.1875 33.59375 48.1875 
Q 44.578125 48.1875 50.953125 41.515625 
Q 57.328125 34.859375 57.328125 23.390625 
Q 57.328125 12.15625 50.6875 5.359375 
Q 44.046875 -1.421875 33.015625 -1.421875 
Q 20.359375 -1.421875 13.671875 8.265625 
Q 6.984375 17.96875 6.984375 36.375 
Q 6.984375 53.65625 15.1875 63.9375 
Q 23.390625 74.21875 37.203125 74.21875 
Q 40.921875 74.21875 44.703125 73.484375 
Q 48.484375 72.75 52.59375 71.296875 
" id="DejaVuSans-36"/>
      </defs>
      <g transform="translate(260.673892 322.182437)scale(0.1 -0.1)">
       <use xlink:href="#DejaVuSans-30"/>
       <use x="63.623047" xlink:href="#DejaVuSans-2e"/>
       <use x="95.410156" xlink:href="#DejaVuSans-36"/>
      </g>
     </g>
    </g>
    <g id="xtick_5">
     <g id="line2d_5">
      <g>
       <use style="stroke:#000000;stroke-width:0.8;" x="333.556364" xlink:href="#m4c08995916" y="307.584"/>
      </g>
     </g>
     <g id="text_5">
      <!-- 0.8 -->
      <defs>
       <path d="M 31.78125 34.625 
Q 24.75 34.625 20.71875 30.859375 
Q 16.703125 27.09375 16.703125 20.515625 
Q 16.703125 13.921875 20.71875 10.15625 
Q 24.75 6.390625 31.78125 6.390625 
Q 38.8125 6.390625 42.859375 10.171875 
Q 46.921875 13.96875 46.921875 20.515625 
Q 46.921875 27.09375 42.890625 30.859375 
Q 38.875 34.625 31.78125 34.625 
M 21.921875 38.8125 
Q 15.578125 40.375 12.03125 44.71875 
Q 8.5 49.078125 8.5 55.328125 
Q 8.5 64.0625 14.71875 69.140625 
Q 20.953125 74.21875 31.78125 74.21875 
Q 42.671875 74.21875 48.875 69.140625 
Q 55.078125 64.0625 55.078125 55.328125 
Q 55.078125 49.078125 51.53125 44.71875 
Q 48 40.375 41.703125 38.8125 
Q 48.828125 37.15625 52.796875 32.3125 
Q 56.78125 27.484375 56.78125 20.515625 
Q 56.78125 9.90625 50.3125 4.234375 
Q 43.84375 -1.421875 31.78125 -1.421875 
Q 19.734375 -1.421875 13.25 4.234375 
Q 6.78125 9.90625 6.78125 20.515625 
Q 6.78125 27.484375 10.78125 32.3125 
Q 14.796875 37.15625 21.921875 38.8125 
M 18.3125 54.390625 
Q 18.3125 48.734375 21.84375 45.5625 
Q 25.390625 42.390625 31.78125 42.390625 
Q 38.140625 42.390625 41.71875 45.5625 
Q 45.3125 48.734375 45.3125 54.390625 
Q 45.3125 60.0625 41.71875 63.234375 
Q 38.140625 66.40625 31.78125 66.40625 
Q 25.390625 66.40625 21.84375 63.234375 
Q 18.3125 60.0625 18.3125 54.390625 
" id="DejaVuSans-38"/>
      </defs>
      <g transform="translate(325.604801 322.182437)scale(0.1 -0.1)">
       <use xlink:href="#DejaVuSans-30"/>
       <use x="63.623047" xlink:href="#DejaVuSans-2e"/>
       <use x="95.410156" xlink:href="#DejaVuSans-38"/>
      </g>
     </g>
    </g>
    <g id="xtick_6">
     <g id="line2d_6">
      <g>
       <use style="stroke:#000000;stroke-width:0.8;" x="398.487273" xlink:href="#m4c08995916" y="307.584"/>
      </g>
     </g>
     <g id="text_6">
      <!-- 1.0 -->
      <defs>
       <path d="M 12.40625 8.296875 
L 28.515625 8.296875 
L 28.515625 63.921875 
L 10.984375 60.40625 
L 10.984375 69.390625 
L 28.421875 72.90625 
L 38.28125 72.90625 
L 38.28125 8.296875 
L 54.390625 8.296875 
L 54.390625 0 
L 12.40625 0 
z
" id="DejaVuSans-31"/>
      </defs>
      <g transform="translate(390.53571 322.182437)scale(0.1 -0.1)">
       <use xlink:href="#DejaVuSans-31"/>
       <use x="63.623047" xlink:href="#DejaVuSans-2e"/>
       <use x="95.410156" xlink:href="#DejaVuSans-30"/>
      </g>
     </g>
    </g>
   </g>
   <g id="matplotlib.axis_2">
    <g id="ytick_1">
     <g id="line2d_7">
      <defs>
       <path d="M 0 0 
L -3.5 0 
" id="m288d821ff3" style="stroke:#000000;stroke-width:0.8;"/>
      </defs>
      <g>
       <use style="stroke:#000000;stroke-width:0.8;" x="57.6" xlink:href="#m288d821ff3" y="299.574423"/>
      </g>
     </g>
     <g id="text_7">
      <!-- 0.0 -->
      <g transform="translate(34.696875 303.373641)scale(0.1 -0.1)">
       <use xlink:href="#DejaVuSans-30"/>
       <use x="63.623047" xlink:href="#DejaVuSans-2e"/>
       <use x="95.410156" xlink:href="#DejaVuSans-30"/>
      </g>
     </g>
    </g>
    <g id="ytick_2">
     <g id="line2d_8">
      <g>
       <use style="stroke:#000000;stroke-width:0.8;" x="57.6" xlink:href="#m288d821ff3" y="259.282343"/>
      </g>
     </g>
     <g id="text_8">
      <!-- 0.1 -->
      <g transform="translate(34.696875 263.081562)scale(0.1 -0.1)">
       <use xlink:href="#DejaVuSans-30"/>
       <use x="63.623047" xlink:href="#DejaVuSans-2e"/>
       <use x="95.410156" xlink:href="#DejaVuSans-31"/>
      </g>
     </g>
    </g>
    <g id="ytick_3">
     <g id="line2d_9">
      <g>
       <use style="stroke:#000000;stroke-width:0.8;" x="57.6" xlink:href="#m288d821ff3" y="218.990264"/>
      </g>
     </g>
     <g id="text_9">
      <!-- 0.2 -->
      <g transform="translate(34.696875 222.789483)scale(0.1 -0.1)">
       <use xlink:href="#DejaVuSans-30"/>
       <use x="63.623047" xlink:href="#DejaVuSans-2e"/>
       <use x="95.410156" xlink:href="#DejaVuSans-32"/>
      </g>
     </g>
    </g>
    <g id="ytick_4">
     <g id="line2d_10">
      <g>
       <use style="stroke:#000000;stroke-width:0.8;" x="57.6" xlink:href="#m288d821ff3" y="178.698184"/>
      </g>
     </g>
     <g id="text_10">
      <!-- 0.3 -->
      <defs>
       <path d="M 40.578125 39.3125 
Q 47.65625 37.796875 51.625 33 
Q 55.609375 28.21875 55.609375 21.1875 
Q 55.609375 10.40625 48.1875 4.484375 
Q 40.765625 -1.421875 27.09375 -1.421875 
Q 22.515625 -1.421875 17.65625 -0.515625 
Q 12.796875 0.390625 7.625 2.203125 
L 7.625 11.71875 
Q 11.71875 9.328125 16.59375 8.109375 
Q 21.484375 6.890625 26.8125 6.890625 
Q 36.078125 6.890625 40.9375 10.546875 
Q 45.796875 14.203125 45.796875 21.1875 
Q 45.796875 27.640625 41.28125 31.265625 
Q 36.765625 34.90625 28.71875 34.90625 
L 20.21875 34.90625 
L 20.21875 43.015625 
L 29.109375 43.015625 
Q 36.375 43.015625 40.234375 45.921875 
Q 44.09375 48.828125 44.09375 54.296875 
Q 44.09375 59.90625 40.109375 62.90625 
Q 36.140625 65.921875 28.71875 65.921875 
Q 24.65625 65.921875 20.015625 65.03125 
Q 15.375 64.15625 9.8125 62.3125 
L 9.8125 71.09375 
Q 15.4375 72.65625 20.34375 73.4375 
Q 25.25 74.21875 29.59375 74.21875 
Q 40.828125 74.21875 47.359375 69.109375 
Q 53.90625 64.015625 53.90625 55.328125 
Q 53.90625 49.265625 50.4375 45.09375 
Q 46.96875 40.921875 40.578125 39.3125 
" id="DejaVuSans-33"/>
      </defs>
      <g transform="translate(34.696875 182.497403)scale(0.1 -0.1)">
       <use xlink:href="#DejaVuSans-30"/>
       <use x="63.623047" xlink:href="#DejaVuSans-2e"/>
       <use x="95.410156" xlink:href="#DejaVuSans-33"/>
      </g>
     </g>
    </g>
    <g id="ytick_5">
     <g id="line2d_11">
      <g>
       <use style="stroke:#000000;stroke-width:0.8;" x="57.6" xlink:href="#m288d821ff3" y="138.406105"/>
      </g>
     </g>
     <g id="text_11">
      <!-- 0.4 -->
      <g transform="translate(34.696875 142.205324)scale(0.1 -0.1)">
       <use xlink:href="#DejaVuSans-30"/>
       <use x="63.623047" xlink:href="#DejaVuSans-2e"/>
       <use x="95.410156" xlink:href="#DejaVuSans-34"/>
      </g>
     </g>
    </g>
    <g id="ytick_6">
     <g id="line2d_12">
      <g>
       <use style="stroke:#000000;stroke-width:0.8;" x="57.6" xlink:href="#m288d821ff3" y="98.114026"/>
      </g>
     </g>
     <g id="text_12">
      <!-- 0.5 -->
      <defs>
       <path d="M 10.796875 72.90625 
L 49.515625 72.90625 
L 49.515625 64.59375 
L 19.828125 64.59375 
L 19.828125 46.734375 
Q 21.96875 47.46875 24.109375 47.828125 
Q 26.265625 48.1875 28.421875 48.1875 
Q 40.625 48.1875 47.75 41.5 
Q 54.890625 34.8125 54.890625 23.390625 
Q 54.890625 11.625 47.5625 5.09375 
Q 40.234375 -1.421875 26.90625 -1.421875 
Q 22.3125 -1.421875 17.546875 -0.640625 
Q 12.796875 0.140625 7.71875 1.703125 
L 7.71875 11.625 
Q 12.109375 9.234375 16.796875 8.0625 
Q 21.484375 6.890625 26.703125 6.890625 
Q 35.15625 6.890625 40.078125 11.328125 
Q 45.015625 15.765625 45.015625 23.390625 
Q 45.015625 31 40.078125 35.4375 
Q 35.15625 39.890625 26.703125 39.890625 
Q 22.75 39.890625 18.8125 39.015625 
Q 14.890625 38.140625 10.796875 36.28125 
z
" id="DejaVuSans-35"/>
      </defs>
      <g transform="translate(34.696875 101.913244)scale(0.1 -0.1)">
       <use xlink:href="#DejaVuSans-30"/>
       <use x="63.623047" xlink:href="#DejaVuSans-2e"/>
       <use x="95.410156" xlink:href="#DejaVuSans-35"/>
      </g>
     </g>
    </g>
    <g id="ytick_7">
     <g id="line2d_13">
      <g>
       <use style="stroke:#000000;stroke-width:0.8;" x="57.6" xlink:href="#m288d821ff3" y="57.821946"/>
      </g>
     </g>
     <g id="text_13">
      <!-- 0.6 -->
      <g transform="translate(34.696875 61.621165)scale(0.1 -0.1)">
       <use xlink:href="#DejaVuSans-30"/>
       <use x="63.623047" xlink:href="#DejaVuSans-2e"/>
       <use x="95.410156" xlink:href="#DejaVuSans-36"/>
      </g>
     </g>
    </g>
   </g>
   <g id="line2d_14">
    <path clip-path="url(#pdcc634dc35)" d="M 73.832727 100.701986 
L 75.48072 96.343189 
L 77.128713 104.24366 
L 78.776705 105.060783 
L 80.424698 123.313498 
L 82.07269 139.386814 
L 83.720683 151.918457 
L 85.368676 149.194309 
L 87.016668 143.200862 
L 88.664661 150.011433 
L 90.312653 155.187756 
L 91.960646 166.084749 
L 93.608639 170.988295 
L 95.256631 188.151512 
L 96.904624 206.676601 
L 100.200609 229.288113 
L 101.848602 236.098684 
L 103.496594 253.80665 
L 105.144587 261.706959 
L 106.79258 264.158813 
L 108.440572 267.155496 
L 110.088565 264.976098 
L 111.736557 264.158813 
L 113.38455 264.158813 
L 115.032543 268.51765 
L 116.680535 276.145626 
L 118.328528 278.325065 
L 119.976521 279.687179 
L 121.624513 283.773602 
L 123.272506 283.773602 
L 124.920498 285.135756 
L 126.568491 281.866618 
L 128.216484 280.232049 
L 129.864476 282.683902 
L 131.512469 282.411488 
L 133.160461 284.046016 
L 134.808454 284.318471 
L 136.456447 285.953041 
L 138.104439 283.773602 
L 139.752432 280.504464 
L 141.400425 276.145626 
L 143.048417 270.15222 
L 144.69641 254.623773 
L 146.344402 235.826309 
L 147.992395 220.025367 
L 149.640388 205.314326 
L 152.936373 163.360601 
L 154.584365 145.652635 
L 156.232358 130.66922 
L 157.880351 118.954701 
L 159.528343 106.150684 
L 161.176336 99.884862 
L 162.824329 94.436164 
L 164.472321 89.532618 
L 167.768306 74.549203 
L 171.064292 64.469333 
L 172.712284 67.193481 
L 174.360277 63.107058 
L 176.008269 64.741708 
L 177.656262 74.549203 
L 179.304255 83.266797 
L 180.952247 93.619041 
L 182.60024 94.16379 
L 184.248233 105.33356 
L 185.896225 121.951626 
L 187.544218 124.675773 
L 189.19221 126.582797 
L 190.840203 134.210894 
L 192.488196 141.021464 
L 194.136188 156.549628 
L 197.432174 172.622945 
L 199.080166 182.43044 
L 200.728159 186.244488 
L 202.376151 196.051983 
L 204.024144 203.407302 
L 205.672137 212.397674 
L 207.320129 217.573594 
L 208.968122 227.108715 
L 210.616114 229.560488 
L 213.9121 227.925838 
L 215.560092 229.832862 
L 217.208085 229.560488 
L 218.856078 224.384164 
L 222.152063 239.912732 
L 223.800055 244.271529 
L 225.448048 246.723302 
L 227.096041 258.437821 
L 228.744033 266.338212 
L 230.392026 268.51765 
L 232.040018 269.879805 
L 233.688011 268.790065 
L 235.336004 270.969504 
L 236.983996 270.697089 
L 238.631989 272.604073 
L 240.279982 277.235325 
L 243.575967 284.863301 
L 245.223959 287.58761 
L 246.871952 290.856748 
L 248.519945 291.946447 
L 250.167937 291.129163 
L 251.81593 289.767008 
L 253.463922 291.946447 
L 255.111915 292.218862 
L 256.759908 288.949724 
L 258.4079 285.953041 
L 260.055893 283.228732 
L 261.703886 278.05261 
L 263.351878 270.697089 
L 264.999871 260.07239 
L 266.647863 253.534275 
L 268.295856 238.278082 
L 269.943849 227.108715 
L 271.591841 218.93587 
L 273.239834 208.311251 
L 274.887826 196.869106 
L 276.535819 187.606763 
L 278.183812 186.244488 
L 279.831804 173.168096 
L 281.479797 162.270701 
L 283.12779 159.818928 
L 284.775782 153.825481 
L 286.423775 145.380261 
L 288.071767 126.855172 
L 289.71976 135.028017 
L 291.367753 137.47979 
L 293.015745 132.031092 
L 294.663738 124.675773 
L 296.311731 132.576244 
L 297.959723 153.825481 
L 299.607716 137.207416 
L 301.255708 129.579319 
L 302.903701 135.84514 
L 304.551694 149.739058 
L 306.199686 137.207416 
L 307.847679 128.489821 
L 309.495671 147.55966 
L 311.143664 162.543075 
L 312.791657 161.725952 
L 314.439649 159.001804 
L 316.087642 158.184278 
L 317.735635 166.357123 
L 319.383627 161.998326 
L 321.03162 154.915382 
L 322.679612 161.725952 
L 324.327605 173.168096 
L 325.975598 188.696261 
L 327.62359 181.613316 
L 329.271583 188.696261 
L 330.919575 203.134928 
L 335.863553 224.11179 
L 337.511546 243.454406 
L 339.159539 256.803172 
L 340.807531 261.434504 
L 342.455524 264.703643 
L 344.103516 269.06252 
L 345.751509 279.14235 
L 347.399502 283.773602 
L 349.047494 285.680586 
L 350.695487 288.677309 
L 352.343479 291.129163 
L 353.991472 291.401577 
L 355.639465 290.311878 
L 357.287457 290.311878 
L 358.93545 288.949724 
L 360.583443 290.039463 
L 362.231435 291.946447 
L 363.879428 292.763732 
L 365.52742 294.670715 
L 367.175413 295.488 
L 368.823406 295.488 
L 370.471398 293.036146 
L 372.119391 288.949724 
L 373.767383 285.953041 
L 375.415376 281.866618 
L 377.063369 275.600756 
L 378.711361 264.431228 
L 382.007347 233.374536 
L 383.655339 204.769577 
L 385.303332 184.337464 
L 386.951324 171.805821 
L 388.599317 163.90535 
L 390.24731 152.735983 
L 391.895302 139.931563 
L 393.543295 148.104408 
L 395.191287 153.280732 
L 396.83928 146.197384 
L 398.487273 135.572766 
L 398.487273 135.572766 
" style="fill:none;stroke:#1f77b4;stroke-linecap:square;stroke-width:1.5;"/>
   </g>
   <g id="line2d_15">
    <path clip-path="url(#pdcc634dc35)" d="M 73.832727 96.268764 
L 75.48072 93.758948 
L 77.128713 107.306696 
L 78.776705 101.998076 
L 80.424698 122.536886 
L 82.07269 140.987705 
L 83.720683 151.412557 
L 85.368676 155.547572 
L 87.016668 139.311038 
L 88.664661 147.57146 
L 90.312653 152.976791 
L 91.960646 162.395151 
L 93.608639 173.598678 
L 95.256631 180.13247 
L 96.904624 205.161181 
L 98.552617 215.285095 
L 100.200609 227.253667 
L 101.848602 233.272307 
L 103.496594 245.166266 
L 105.144587 259.85787 
L 106.79258 263.753569 
L 110.088565 266.203682 
L 111.736557 263.274211 
L 113.38455 264.121761 
L 115.032543 265.463792 
L 118.328528 276.189865 
L 119.976521 276.569011 
L 121.624513 279.56752 
L 123.272506 280.75391 
L 124.920498 281.318728 
L 126.568491 281.405486 
L 128.216484 278.060753 
L 133.160461 280.503845 
L 136.456447 281.526896 
L 138.104439 282.314688 
L 139.752432 279.352785 
L 141.400425 277.536343 
L 143.048417 272.090091 
L 144.69641 263.416793 
L 146.344402 240.45028 
L 147.992395 224.069045 
L 149.640388 204.967968 
L 151.28838 187.986604 
L 152.936373 162.055404 
L 154.584365 142.506518 
L 156.232358 133.900386 
L 157.880351 113.603378 
L 159.528343 108.888286 
L 161.176336 94.77884 
L 162.824329 96.656033 
L 164.472321 89.890413 
L 166.120314 84.939275 
L 167.768306 73.658087 
L 169.416299 70.705286 
L 171.064292 65.475722 
L 172.712284 65.505755 
L 174.360277 65.699114 
L 176.008269 58.313731 
L 177.656262 80.304479 
L 179.304255 81.903628 
L 180.952247 95.79148 
L 182.60024 97.082336 
L 184.248233 102.948623 
L 185.896225 124.608415 
L 187.544218 126.11316 
L 189.19221 128.415749 
L 190.840203 131.669615 
L 192.488196 138.699601 
L 194.136188 155.950745 
L 195.784181 162.254974 
L 197.432174 171.653382 
L 199.080166 181.703451 
L 200.728159 185.182964 
L 202.376151 194.238315 
L 204.024144 199.292669 
L 205.672137 211.999993 
L 207.320129 214.799371 
L 208.968122 223.561354 
L 210.616114 229.578781 
L 212.264107 226.300622 
L 213.9121 229.106885 
L 215.560092 227.767806 
L 217.208085 229.61033 
L 218.856078 221.455795 
L 220.50407 227.780566 
L 222.152063 238.88529 
L 223.800055 242.269825 
L 225.448048 243.567167 
L 228.744033 263.699602 
L 230.392026 267.276637 
L 232.040018 268.498013 
L 233.688011 268.245136 
L 235.336004 269.721406 
L 236.983996 269.998618 
L 238.631989 270.473531 
L 240.279982 273.514334 
L 243.575967 280.369838 
L 245.223959 282.558442 
L 246.871952 284.211315 
L 248.519945 286.061595 
L 250.167937 285.919006 
L 251.81593 285.432042 
L 253.463922 285.334369 
L 255.111915 286.303178 
L 256.759908 285.801393 
L 258.4079 283.134942 
L 260.055893 282.023959 
L 261.703886 279.122481 
L 263.351878 272.872768 
L 264.999871 265.621635 
L 266.647863 255.837457 
L 268.295856 245.203592 
L 269.943849 225.763034 
L 271.591841 220.174233 
L 273.239834 209.500574 
L 276.535819 185.276433 
L 278.183812 183.282013 
L 279.831804 178.792952 
L 281.479797 154.625583 
L 283.12779 158.994597 
L 284.775782 152.965289 
L 286.423775 147.592687 
L 288.071767 125.270845 
L 289.71976 126.043871 
L 291.367753 144.72023 
L 293.015745 132.412277 
L 294.663738 122.084765 
L 296.311731 125.702887 
L 297.959723 158.667543 
L 299.607716 148.245415 
L 301.255708 120.380808 
L 302.903701 131.70888 
L 304.551694 151.40882 
L 306.199686 144.219954 
L 307.847679 121.686065 
L 309.495671 138.195667 
L 311.143664 169.693099 
L 312.791657 162.898336 
L 314.439649 161.066302 
L 316.087642 150.269377 
L 317.735635 166.394957 
L 319.383627 164.383084 
L 321.03162 150.658245 
L 324.327605 167.05964 
L 325.975598 194.32118 
L 327.62359 182.138041 
L 329.271583 182.453203 
L 330.919575 198.725544 
L 332.567568 209.606996 
L 334.215561 214.506427 
L 335.863553 220.675209 
L 337.511546 234.369762 
L 339.159539 253.272673 
L 340.807531 261.133669 
L 342.455524 261.816759 
L 345.751509 271.388839 
L 347.399502 279.980224 
L 349.047494 281.127916 
L 350.695487 282.950601 
L 352.343479 285.182032 
L 353.991472 285.551052 
L 355.639465 285.721116 
L 358.93545 284.764676 
L 360.583443 284.517638 
L 363.879428 286.446858 
L 365.52742 287.068959 
L 367.175413 287.841725 
L 368.823406 288.169245 
L 370.471398 288.061212 
L 375.415376 280.975197 
L 377.063369 277.639715 
L 378.711361 270.627986 
L 380.359354 254.556416 
L 382.007347 240.837932 
L 385.303332 182.387725 
L 386.951324 166.931302 
L 388.599317 162.641396 
L 390.24731 153.975067 
L 391.895302 136.459673 
L 393.543295 141.707934 
L 395.191287 155.956223 
L 396.83928 148.94515 
L 398.487273 135.311538 
L 398.487273 135.311538 
" style="fill:none;stroke:#ff7f0e;stroke-linecap:square;stroke-width:1.5;"/>
   </g>
   <g id="line2d_16">
    <path clip-path="url(#pdcc634dc35)" d="M 73.832727 100.637435 
L 75.48072 98.166179 
L 77.128713 111.7857 
L 78.776705 107.396425 
L 80.424698 127.1711 
L 82.07269 145.251366 
L 83.720683 155.600454 
L 85.368676 160.276646 
L 87.016668 143.911322 
L 88.664661 151.526025 
L 90.312653 156.990164 
L 91.960646 166.081574 
L 93.608639 177.331715 
L 95.256631 184.272965 
L 96.904624 209.776251 
L 98.552617 219.141581 
L 100.200609 231.109976 
L 101.848602 236.54528 
L 103.496594 248.655432 
L 105.144587 262.998335 
L 106.79258 266.175035 
L 108.440572 267.197202 
L 110.088565 268.411297 
L 111.736557 265.415576 
L 113.38455 266.339605 
L 115.032543 267.704723 
L 118.328528 278.50321 
L 119.976521 278.74209 
L 121.624513 281.82984 
L 123.272506 282.968218 
L 124.920498 283.488708 
L 126.568491 283.557099 
L 128.216484 280.166595 
L 129.864476 281.031854 
L 131.512469 281.74185 
L 133.160461 282.682823 
L 136.456447 283.690852 
L 138.104439 284.487441 
L 139.752432 281.484335 
L 141.400425 279.636787 
L 143.048417 274.268824 
L 144.69641 266.300187 
L 151.28838 192.48208 
L 152.936373 166.641683 
L 154.584365 146.767741 
L 156.232358 137.766199 
L 157.880351 117.763252 
L 159.528343 113.454851 
L 161.176336 98.868915 
L 162.824329 101.171619 
L 164.472321 93.928817 
L 166.120314 89.145836 
L 167.768306 77.904261 
L 169.416299 75.086505 
L 171.064292 69.749492 
L 172.712284 69.917017 
L 174.360277 70.342411 
L 176.008269 62.637988 
L 177.656262 85.289496 
L 179.304255 86.347885 
L 180.952247 100.088815 
L 182.60024 102.095388 
L 184.248233 107.010866 
L 185.896225 128.821835 
L 187.544218 132.426049 
L 189.19221 132.400152 
L 190.840203 135.407581 
L 192.488196 143.209121 
L 194.136188 160.053695 
L 195.784181 166.762451 
L 197.432174 175.349062 
L 199.080166 185.487343 
L 200.728159 188.801177 
L 202.376151 198.308437 
L 204.024144 202.873672 
L 205.672137 215.992037 
L 207.320129 218.264028 
L 208.968122 227.203953 
L 210.616114 232.86383 
L 212.264107 229.401179 
L 213.9121 232.196854 
L 215.560092 230.821907 
L 217.208085 232.639091 
L 218.856078 225.108994 
L 220.50407 231.32478 
L 222.152063 242.247198 
L 223.800055 245.156933 
L 225.448048 246.315235 
L 228.744033 266.464272 
L 230.392026 269.595566 
L 232.040018 270.688496 
L 233.688011 270.39472 
L 235.336004 271.918706 
L 236.983996 272.157883 
L 238.631989 272.610175 
L 241.927974 279.141585 
L 243.575967 282.644787 
L 245.223959 284.818238 
L 246.871952 286.439542 
L 248.519945 288.274613 
L 250.167937 288.094994 
L 251.81593 287.585924 
L 253.463922 287.51895 
L 255.111915 288.482743 
L 256.759908 287.959616 
L 258.4079 285.291381 
L 260.055893 284.1512 
L 261.703886 281.251935 
L 263.351878 275.118335 
L 264.999871 268.078884 
L 268.295856 248.973235 
L 269.943849 230.816006 
L 271.591841 223.474304 
L 273.239834 213.019813 
L 276.535819 188.92087 
L 278.183812 186.897544 
L 279.831804 182.589812 
L 281.479797 159.330509 
L 283.12779 162.967055 
L 286.423775 151.360572 
L 288.071767 131.416288 
L 289.71976 130.65693 
L 291.367753 149.083227 
L 293.015745 137.07418 
L 294.663738 126.807529 
L 296.311731 129.555829 
L 297.959723 164.087975 
L 299.607716 157.069602 
L 301.255708 124.736042 
L 302.903701 136.05669 
L 304.551694 155.565817 
L 306.199686 151.648253 
L 307.847679 125.864917 
L 309.495671 142.955063 
L 311.143664 174.246035 
L 312.791657 167.974722 
L 314.439649 164.583369 
L 316.087642 154.527147 
L 317.735635 170.634684 
L 319.383627 168.761838 
L 321.03162 155.214793 
L 324.327605 170.664302 
L 325.975598 199.654739 
L 327.62359 187.921747 
L 329.271583 186.387344 
L 330.919575 202.88221 
L 332.567568 213.359553 
L 334.215561 218.058926 
L 335.863553 224.069162 
L 337.511546 238.29635 
L 339.159539 256.907256 
L 340.807531 263.877891 
L 342.455524 264.101317 
L 345.751509 273.734698 
L 347.399502 282.412245 
L 349.047494 283.380851 
L 350.695487 285.155209 
L 352.343479 287.415841 
L 353.991472 287.755782 
L 355.639465 287.884349 
L 358.93545 286.937887 
L 360.583443 286.680487 
L 363.879428 288.626844 
L 365.52742 289.2502 
L 367.175413 290.037478 
L 368.823406 290.349345 
L 370.471398 290.234661 
L 375.415376 283.0914 
L 377.063369 279.740034 
L 378.711361 272.948069 
L 380.359354 259.403173 
L 382.007347 244.638699 
L 383.655339 219.856026 
L 385.303332 187.400516 
L 386.951324 170.882731 
L 388.599317 166.286919 
L 390.24731 157.826495 
L 391.895302 141.059568 
L 393.543295 145.939174 
L 395.191287 159.933718 
L 396.83928 153.80385 
L 398.487273 139.541701 
L 398.487273 139.541701 
" style="fill:none;stroke:#2ca02c;stroke-linecap:square;stroke-width:1.5;"/>
   </g>
   <g id="line2d_17">
    <path clip-path="url(#pdcc634dc35)" d="M 73.832727 92.006286 
L 75.48072 89.040847 
L 77.128713 101.707791 
L 78.776705 97.525953 
L 82.07269 137.05334 
L 83.720683 147.608629 
L 85.368676 151.696186 
L 87.016668 135.420267 
L 88.664661 143.235677 
L 90.312653 149.453684 
L 91.960646 158.695195 
L 93.608639 169.93257 
L 95.256631 175.241333 
L 96.904624 198.69574 
L 98.552617 210.452353 
L 100.200609 221.2515 
L 101.848602 229.177101 
L 103.496594 239.323648 
L 105.144587 254.758614 
L 106.79258 260.852598 
L 108.440572 262.478297 
L 110.088565 263.855516 
L 111.736557 261.057321 
L 113.38455 261.759486 
L 115.032543 262.956904 
L 116.680535 267.652911 
L 118.328528 272.969053 
L 119.976521 274.059367 
L 121.624513 276.452248 
L 123.272506 278.014771 
L 124.920498 278.552873 
L 126.568491 278.765912 
L 128.216484 275.744226 
L 129.864476 276.196536 
L 133.160461 277.730995 
L 136.456447 278.7793 
L 138.104439 279.541312 
L 139.752432 276.975513 
L 141.400425 275.224724 
L 143.048417 269.826544 
L 144.69641 260.903168 
L 146.344402 236.637913 
L 147.992395 220.60009 
L 149.640388 201.235577 
L 151.28838 184.212836 
L 152.936373 157.813396 
L 154.584365 138.513062 
L 156.232358 129.91351 
L 157.880351 109.48449 
L 159.528343 104.513504 
L 161.176336 90.47865 
L 162.824329 92.178188 
L 164.472321 85.685593 
L 166.120314 80.712113 
L 167.768306 69.246214 
L 169.416299 65.947881 
L 171.064292 60.714205 
L 172.712284 60.071737 
L 174.360277 61.233632 
L 176.008269 53.568 
L 177.656262 74.480253 
L 179.304255 77.304606 
L 180.952247 91.517385 
L 182.60024 92.769834 
L 184.248233 98.440153 
L 185.896225 120.358133 
L 187.544218 121.509302 
L 190.840203 127.956808 
L 192.488196 134.85385 
L 194.136188 151.46912 
L 195.784181 158.441164 
L 199.080166 177.427073 
L 200.728159 181.572944 
L 202.376151 189.193753 
L 204.024144 195.517494 
L 205.672137 206.483812 
L 207.320129 210.89889 
L 210.616114 225.758064 
L 212.264107 223.231661 
L 213.9121 225.659303 
L 215.560092 224.400544 
L 217.208085 226.329671 
L 218.856078 218.175543 
L 220.50407 223.173729 
L 222.152063 233.857265 
L 223.800055 238.932905 
L 225.448048 240.740443 
L 227.096041 248.949018 
L 228.744033 259.341349 
L 230.392026 264.531203 
L 232.040018 266.072962 
L 233.688011 265.97792 
L 235.336004 267.208848 
L 238.631989 268.113352 
L 240.279982 270.679841 
L 243.575967 277.159932 
L 245.223959 279.47813 
L 248.519945 282.8772 
L 250.167937 283.06374 
L 251.81593 282.645227 
L 253.463922 282.418019 
L 255.111915 283.280804 
L 256.759908 283.020838 
L 258.4079 280.627281 
L 260.055893 279.470658 
L 261.703886 276.776651 
L 263.351878 270.579491 
L 264.999871 263.286572 
L 266.647863 253.363185 
L 268.295856 242.18473 
L 269.943849 222.267877 
L 271.591841 216.998404 
L 273.239834 206.198761 
L 276.535819 181.737927 
L 278.183812 179.389874 
L 279.831804 175.385606 
L 281.479797 150.529969 
L 283.12779 154.937006 
L 286.423775 144.163254 
L 288.071767 120.66109 
L 289.71976 119.943873 
L 291.367753 140.609249 
L 293.015745 128.352694 
L 294.663738 118.098122 
L 296.311731 121.606378 
L 297.959723 151.947179 
L 299.607716 142.288162 
L 301.255708 116.00961 
L 302.903701 127.13154 
L 304.551694 146.83756 
L 306.199686 139.168222 
L 307.847679 117.692293 
L 309.495671 132.334162 
L 311.143664 164.91781 
L 312.791657 158.553322 
L 314.439649 157.660001 
L 316.087642 146.638649 
L 317.735635 161.824151 
L 319.383627 160.684902 
L 321.03162 146.941156 
L 322.679612 154.186482 
L 324.327605 163.528624 
L 325.975598 186.884322 
L 327.62359 177.361927 
L 329.271583 177.824183 
L 330.919575 193.474564 
L 332.567568 205.283912 
L 334.215561 210.15379 
L 335.863553 216.588176 
L 337.511546 227.773843 
L 339.159539 246.714226 
L 340.807531 257.253697 
L 342.455524 259.369752 
L 344.103516 263.608978 
L 345.751509 268.18313 
L 347.399502 275.84158 
L 349.047494 278.308881 
L 350.695487 279.927521 
L 352.343479 281.950773 
L 353.991472 282.64245 
L 355.639465 282.834786 
L 358.93545 282.022952 
L 360.583443 281.708332 
L 362.231435 282.44134 
L 363.879428 283.397923 
L 365.52742 284.005748 
L 367.175413 284.750151 
L 368.823406 285.154241 
L 370.471398 285.11018 
L 373.767383 280.778233 
L 375.415376 278.572089 
L 377.063369 275.373931 
L 378.711361 268.320459 
L 380.359354 251.459431 
L 382.007347 237.823504 
L 383.655339 206.192158 
L 385.303332 177.774758 
L 386.951324 162.97694 
L 388.599317 159.032786 
L 390.24731 150.502313 
L 391.895302 132.556967 
L 393.543295 136.528521 
L 395.191287 152.245278 
L 396.83928 145.115846 
L 398.487273 131.628565 
L 398.487273 131.628565 
" style="fill:none;stroke:#d62728;stroke-linecap:square;stroke-width:1.5;"/>
   </g>
   <g id="patch_3">
    <path d="M 57.6 307.584 
L 57.6 41.472 
" style="fill:none;stroke:#000000;stroke-linecap:square;stroke-linejoin:miter;stroke-width:0.8;"/>
   </g>
   <g id="patch_4">
    <path d="M 414.72 307.584 
L 414.72 41.472 
" style="fill:none;stroke:#000000;stroke-linecap:square;stroke-linejoin:miter;stroke-width:0.8;"/>
   </g>
   <g id="patch_5">
    <path d="M 57.6 307.584 
L 414.72 307.584 
" style="fill:none;stroke:#000000;stroke-linecap:square;stroke-linejoin:miter;stroke-width:0.8;"/>
   </g>
   <g id="patch_6">
    <path d="M 57.6 41.472 
L 414.72 41.472 
" style="fill:none;stroke:#000000;stroke-linecap:square;stroke-linejoin:miter;stroke-width:0.8;"/>
   </g>
   <g id="text_14">
    <!-- Plot of Test Data vs MCMC Uncertainty  -->
    <defs>
     <path d="M 19.671875 64.796875 
L 19.671875 37.40625 
L 32.078125 37.40625 
Q 38.96875 37.40625 42.71875 40.96875 
Q 46.484375 44.53125 46.484375 51.125 
Q 46.484375 57.671875 42.71875 61.234375 
Q 38.96875 64.796875 32.078125 64.796875 
z
M 9.8125 72.90625 
L 32.078125 72.90625 
Q 44.34375 72.90625 50.609375 67.359375 
Q 56.890625 61.8125 56.890625 51.125 
Q 56.890625 40.328125 50.609375 34.8125 
Q 44.34375 29.296875 32.078125 29.296875 
L 19.671875 29.296875 
L 19.671875 0 
L 9.8125 0 
z
" id="DejaVuSans-50"/>
     <path d="M 9.421875 75.984375 
L 18.40625 75.984375 
L 18.40625 0 
L 9.421875 0 
z
" id="DejaVuSans-6c"/>
     <path d="M 30.609375 48.390625 
Q 23.390625 48.390625 19.1875 42.75 
Q 14.984375 37.109375 14.984375 27.296875 
Q 14.984375 17.484375 19.15625 11.84375 
Q 23.34375 6.203125 30.609375 6.203125 
Q 37.796875 6.203125 41.984375 11.859375 
Q 46.1875 17.53125 46.1875 27.296875 
Q 46.1875 37.015625 41.984375 42.703125 
Q 37.796875 48.390625 30.609375 48.390625 
M 30.609375 56 
Q 42.328125 56 49.015625 48.375 
Q 55.71875 40.765625 55.71875 27.296875 
Q 55.71875 13.875 49.015625 6.21875 
Q 42.328125 -1.421875 30.609375 -1.421875 
Q 18.84375 -1.421875 12.171875 6.21875 
Q 5.515625 13.875 5.515625 27.296875 
Q 5.515625 40.765625 12.171875 48.375 
Q 18.84375 56 30.609375 56 
" id="DejaVuSans-6f"/>
     <path d="M 18.3125 70.21875 
L 18.3125 54.6875 
L 36.8125 54.6875 
L 36.8125 47.703125 
L 18.3125 47.703125 
L 18.3125 18.015625 
Q 18.3125 11.328125 20.140625 9.421875 
Q 21.96875 7.515625 27.59375 7.515625 
L 36.8125 7.515625 
L 36.8125 0 
L 27.59375 0 
Q 17.1875 0 13.234375 3.875 
Q 9.28125 7.765625 9.28125 18.015625 
L 9.28125 47.703125 
L 2.6875 47.703125 
L 2.6875 54.6875 
L 9.28125 54.6875 
L 9.28125 70.21875 
z
" id="DejaVuSans-74"/>
     <path id="DejaVuSans-20"/>
     <path d="M 37.109375 75.984375 
L 37.109375 68.5 
L 28.515625 68.5 
Q 23.6875 68.5 21.796875 66.546875 
Q 19.921875 64.59375 19.921875 59.515625 
L 19.921875 54.6875 
L 34.71875 54.6875 
L 34.71875 47.703125 
L 19.921875 47.703125 
L 19.921875 0 
L 10.890625 0 
L 10.890625 47.703125 
L 2.296875 47.703125 
L 2.296875 54.6875 
L 10.890625 54.6875 
L 10.890625 58.5 
Q 10.890625 67.625 15.140625 71.796875 
Q 19.390625 75.984375 28.609375 75.984375 
z
" id="DejaVuSans-66"/>
     <path d="M -0.296875 72.90625 
L 61.375 72.90625 
L 61.375 64.59375 
L 35.5 64.59375 
L 35.5 0 
L 25.59375 0 
L 25.59375 64.59375 
L -0.296875 64.59375 
z
" id="DejaVuSans-54"/>
     <path d="M 56.203125 29.59375 
L 56.203125 25.203125 
L 14.890625 25.203125 
Q 15.484375 15.921875 20.484375 11.0625 
Q 25.484375 6.203125 34.421875 6.203125 
Q 39.59375 6.203125 44.453125 7.46875 
Q 49.3125 8.734375 54.109375 11.28125 
L 54.109375 2.78125 
Q 49.265625 0.734375 44.1875 -0.34375 
Q 39.109375 -1.421875 33.890625 -1.421875 
Q 20.796875 -1.421875 13.15625 6.1875 
Q 5.515625 13.8125 5.515625 26.8125 
Q 5.515625 40.234375 12.765625 48.109375 
Q 20.015625 56 32.328125 56 
Q 43.359375 56 49.78125 48.890625 
Q 56.203125 41.796875 56.203125 29.59375 
M 47.21875 32.234375 
Q 47.125 39.59375 43.09375 43.984375 
Q 39.0625 48.390625 32.421875 48.390625 
Q 24.90625 48.390625 20.390625 44.140625 
Q 15.875 39.890625 15.1875 32.171875 
z
" id="DejaVuSans-65"/>
     <path d="M 44.28125 53.078125 
L 44.28125 44.578125 
Q 40.484375 46.53125 36.375 47.5 
Q 32.28125 48.484375 27.875 48.484375 
Q 21.1875 48.484375 17.84375 46.4375 
Q 14.5 44.390625 14.5 40.28125 
Q 14.5 37.15625 16.890625 35.375 
Q 19.28125 33.59375 26.515625 31.984375 
L 29.59375 31.296875 
Q 39.15625 29.25 43.1875 25.515625 
Q 47.21875 21.78125 47.21875 15.09375 
Q 47.21875 7.46875 41.1875 3.015625 
Q 35.15625 -1.421875 24.609375 -1.421875 
Q 20.21875 -1.421875 15.453125 -0.5625 
Q 10.6875 0.296875 5.421875 2 
L 5.421875 11.28125 
Q 10.40625 8.6875 15.234375 7.390625 
Q 20.0625 6.109375 24.8125 6.109375 
Q 31.15625 6.109375 34.5625 8.28125 
Q 37.984375 10.453125 37.984375 14.40625 
Q 37.984375 18.0625 35.515625 20.015625 
Q 33.0625 21.96875 24.703125 23.78125 
L 21.578125 24.515625 
Q 13.234375 26.265625 9.515625 29.90625 
Q 5.8125 33.546875 5.8125 39.890625 
Q 5.8125 47.609375 11.28125 51.796875 
Q 16.75 56 26.8125 56 
Q 31.78125 56 36.171875 55.265625 
Q 40.578125 54.546875 44.28125 53.078125 
" id="DejaVuSans-73"/>
     <path d="M 19.671875 64.796875 
L 19.671875 8.109375 
L 31.59375 8.109375 
Q 46.6875 8.109375 53.6875 14.9375 
Q 60.6875 21.78125 60.6875 36.53125 
Q 60.6875 51.171875 53.6875 57.984375 
Q 46.6875 64.796875 31.59375 64.796875 
z
M 9.8125 72.90625 
L 30.078125 72.90625 
Q 51.265625 72.90625 61.171875 64.09375 
Q 71.09375 55.28125 71.09375 36.53125 
Q 71.09375 17.671875 61.125 8.828125 
Q 51.171875 0 30.078125 0 
L 9.8125 0 
z
" id="DejaVuSans-44"/>
     <path d="M 34.28125 27.484375 
Q 23.390625 27.484375 19.1875 25 
Q 14.984375 22.515625 14.984375 16.5 
Q 14.984375 11.71875 18.140625 8.90625 
Q 21.296875 6.109375 26.703125 6.109375 
Q 34.1875 6.109375 38.703125 11.40625 
Q 43.21875 16.703125 43.21875 25.484375 
L 43.21875 27.484375 
z
M 52.203125 31.203125 
L 52.203125 0 
L 43.21875 0 
L 43.21875 8.296875 
Q 40.140625 3.328125 35.546875 0.953125 
Q 30.953125 -1.421875 24.3125 -1.421875 
Q 15.921875 -1.421875 10.953125 3.296875 
Q 6 8.015625 6 15.921875 
Q 6 25.140625 12.171875 29.828125 
Q 18.359375 34.515625 30.609375 34.515625 
L 43.21875 34.515625 
L 43.21875 35.40625 
Q 43.21875 41.609375 39.140625 45 
Q 35.0625 48.390625 27.6875 48.390625 
Q 23 48.390625 18.546875 47.265625 
Q 14.109375 46.140625 10.015625 43.890625 
L 10.015625 52.203125 
Q 14.9375 54.109375 19.578125 55.046875 
Q 24.21875 56 28.609375 56 
Q 40.484375 56 46.34375 49.84375 
Q 52.203125 43.703125 52.203125 31.203125 
" id="DejaVuSans-61"/>
     <path d="M 2.984375 54.6875 
L 12.5 54.6875 
L 29.59375 8.796875 
L 46.6875 54.6875 
L 56.203125 54.6875 
L 35.6875 0 
L 23.484375 0 
z
" id="DejaVuSans-76"/>
     <path d="M 9.8125 72.90625 
L 24.515625 72.90625 
L 43.109375 23.296875 
L 61.8125 72.90625 
L 76.515625 72.90625 
L 76.515625 0 
L 66.890625 0 
L 66.890625 64.015625 
L 48.09375 14.015625 
L 38.1875 14.015625 
L 19.390625 64.015625 
L 19.390625 0 
L 9.8125 0 
z
" id="DejaVuSans-4d"/>
     <path d="M 64.40625 67.28125 
L 64.40625 56.890625 
Q 59.421875 61.53125 53.78125 63.8125 
Q 48.140625 66.109375 41.796875 66.109375 
Q 29.296875 66.109375 22.65625 58.46875 
Q 16.015625 50.828125 16.015625 36.375 
Q 16.015625 21.96875 22.65625 14.328125 
Q 29.296875 6.6875 41.796875 6.6875 
Q 48.140625 6.6875 53.78125 8.984375 
Q 59.421875 11.28125 64.40625 15.921875 
L 64.40625 5.609375 
Q 59.234375 2.09375 53.4375 0.328125 
Q 47.65625 -1.421875 41.21875 -1.421875 
Q 24.65625 -1.421875 15.125 8.703125 
Q 5.609375 18.84375 5.609375 36.375 
Q 5.609375 53.953125 15.125 64.078125 
Q 24.65625 74.21875 41.21875 74.21875 
Q 47.75 74.21875 53.53125 72.484375 
Q 59.328125 70.75 64.40625 67.28125 
" id="DejaVuSans-43"/>
     <path d="M 8.6875 72.90625 
L 18.609375 72.90625 
L 18.609375 28.609375 
Q 18.609375 16.890625 22.84375 11.734375 
Q 27.09375 6.59375 36.625 6.59375 
Q 46.09375 6.59375 50.34375 11.734375 
Q 54.59375 16.890625 54.59375 28.609375 
L 54.59375 72.90625 
L 64.5 72.90625 
L 64.5 27.390625 
Q 64.5 13.140625 57.4375 5.859375 
Q 50.390625 -1.421875 36.625 -1.421875 
Q 22.796875 -1.421875 15.734375 5.859375 
Q 8.6875 13.140625 8.6875 27.390625 
z
" id="DejaVuSans-55"/>
     <path d="M 54.890625 33.015625 
L 54.890625 0 
L 45.90625 0 
L 45.90625 32.71875 
Q 45.90625 40.484375 42.875 44.328125 
Q 39.84375 48.1875 33.796875 48.1875 
Q 26.515625 48.1875 22.3125 43.546875 
Q 18.109375 38.921875 18.109375 30.90625 
L 18.109375 0 
L 9.078125 0 
L 9.078125 54.6875 
L 18.109375 54.6875 
L 18.109375 46.1875 
Q 21.34375 51.125 25.703125 53.5625 
Q 30.078125 56 35.796875 56 
Q 45.21875 56 50.046875 50.171875 
Q 54.890625 44.34375 54.890625 33.015625 
" id="DejaVuSans-6e"/>
     <path d="M 48.78125 52.59375 
L 48.78125 44.1875 
Q 44.96875 46.296875 41.140625 47.34375 
Q 37.3125 48.390625 33.40625 48.390625 
Q 24.65625 48.390625 19.8125 42.84375 
Q 14.984375 37.3125 14.984375 27.296875 
Q 14.984375 17.28125 19.8125 11.734375 
Q 24.65625 6.203125 33.40625 6.203125 
Q 37.3125 6.203125 41.140625 7.25 
Q 44.96875 8.296875 48.78125 10.40625 
L 48.78125 2.09375 
Q 45.015625 0.34375 40.984375 -0.53125 
Q 36.96875 -1.421875 32.421875 -1.421875 
Q 20.0625 -1.421875 12.78125 6.34375 
Q 5.515625 14.109375 5.515625 27.296875 
Q 5.515625 40.671875 12.859375 48.328125 
Q 20.21875 56 33.015625 56 
Q 37.15625 56 41.109375 55.140625 
Q 45.0625 54.296875 48.78125 52.59375 
" id="DejaVuSans-63"/>
     <path d="M 41.109375 46.296875 
Q 39.59375 47.171875 37.8125 47.578125 
Q 36.03125 48 33.890625 48 
Q 26.265625 48 22.1875 43.046875 
Q 18.109375 38.09375 18.109375 28.8125 
L 18.109375 0 
L 9.078125 0 
L 9.078125 54.6875 
L 18.109375 54.6875 
L 18.109375 46.1875 
Q 20.953125 51.171875 25.484375 53.578125 
Q 30.03125 56 36.53125 56 
Q 37.453125 56 38.578125 55.875 
Q 39.703125 55.765625 41.0625 55.515625 
z
" id="DejaVuSans-72"/>
     <path d="M 9.421875 54.6875 
L 18.40625 54.6875 
L 18.40625 0 
L 9.421875 0 
z
M 9.421875 75.984375 
L 18.40625 75.984375 
L 18.40625 64.59375 
L 9.421875 64.59375 
z
" id="DejaVuSans-69"/>
     <path d="M 32.171875 -5.078125 
Q 28.375 -14.84375 24.75 -17.8125 
Q 21.140625 -20.796875 15.09375 -20.796875 
L 7.90625 -20.796875 
L 7.90625 -13.28125 
L 13.1875 -13.28125 
Q 16.890625 -13.28125 18.9375 -11.515625 
Q 21 -9.765625 23.484375 -3.21875 
L 25.09375 0.875 
L 2.984375 54.6875 
L 12.5 54.6875 
L 29.59375 11.921875 
L 46.6875 54.6875 
L 56.203125 54.6875 
z
" id="DejaVuSans-79"/>
    </defs>
    <g transform="translate(118.112813 35.472)scale(0.12 -0.12)">
     <use xlink:href="#DejaVuSans-50"/>
     <use x="60.302734" xlink:href="#DejaVuSans-6c"/>
     <use x="88.085938" xlink:href="#DejaVuSans-6f"/>
     <use x="149.267578" xlink:href="#DejaVuSans-74"/>
     <use x="188.476562" xlink:href="#DejaVuSans-20"/>
     <use x="220.263672" xlink:href="#DejaVuSans-6f"/>
     <use x="281.445312" xlink:href="#DejaVuSans-66"/>
     <use x="316.650391" xlink:href="#DejaVuSans-20"/>
     <use x="348.4375" xlink:href="#DejaVuSans-54"/>
     <use x="409.255859" xlink:href="#DejaVuSans-65"/>
     <use x="470.779297" xlink:href="#DejaVuSans-73"/>
     <use x="522.878906" xlink:href="#DejaVuSans-74"/>
     <use x="562.087891" xlink:href="#DejaVuSans-20"/>
     <use x="593.875" xlink:href="#DejaVuSans-44"/>
     <use x="670.876953" xlink:href="#DejaVuSans-61"/>
     <use x="732.15625" xlink:href="#DejaVuSans-74"/>
     <use x="771.365234" xlink:href="#DejaVuSans-61"/>
     <use x="832.644531" xlink:href="#DejaVuSans-20"/>
     <use x="864.431641" xlink:href="#DejaVuSans-76"/>
     <use x="923.611328" xlink:href="#DejaVuSans-73"/>
     <use x="975.710938" xlink:href="#DejaVuSans-20"/>
     <use x="1007.498047" xlink:href="#DejaVuSans-4d"/>
     <use x="1093.777344" xlink:href="#DejaVuSans-43"/>
     <use x="1163.601562" xlink:href="#DejaVuSans-4d"/>
     <use x="1249.880859" xlink:href="#DejaVuSans-43"/>
     <use x="1319.705078" xlink:href="#DejaVuSans-20"/>
     <use x="1351.492188" xlink:href="#DejaVuSans-55"/>
     <use x="1424.685547" xlink:href="#DejaVuSans-6e"/>
     <use x="1488.064453" xlink:href="#DejaVuSans-63"/>
     <use x="1543.044922" xlink:href="#DejaVuSans-65"/>
     <use x="1604.568359" xlink:href="#DejaVuSans-72"/>
     <use x="1645.681641" xlink:href="#DejaVuSans-74"/>
     <use x="1684.890625" xlink:href="#DejaVuSans-61"/>
     <use x="1746.169922" xlink:href="#DejaVuSans-69"/>
     <use x="1773.953125" xlink:href="#DejaVuSans-6e"/>
     <use x="1837.332031" xlink:href="#DejaVuSans-74"/>
     <use x="1876.541016" xlink:href="#DejaVuSans-79"/>
     <use x="1935.720703" xlink:href="#DejaVuSans-20"/>
    </g>
   </g>
   <g id="legend_1">
    <g id="patch_7">
     <path d="M 277.843437 108.1845 
L 407.72 108.1845 
Q 409.72 108.1845 409.72 106.1845 
L 409.72 48.472 
Q 409.72 46.472 407.72 46.472 
L 277.843437 46.472 
Q 275.843437 46.472 275.843437 48.472 
L 275.843437 106.1845 
Q 275.843437 108.1845 277.843437 108.1845 
z
" style="fill:#ffffff;opacity:0.8;stroke:#cccccc;stroke-linejoin:miter;"/>
    </g>
    <g id="line2d_18">
     <path d="M 279.843437 54.570438 
L 299.843437 54.570438 
" style="fill:none;stroke:#1f77b4;stroke-linecap:square;stroke-width:1.5;"/>
    </g>
    <g id="line2d_19"/>
    <g id="text_15">
     <!-- actual -->
     <defs>
      <path d="M 8.5 21.578125 
L 8.5 54.6875 
L 17.484375 54.6875 
L 17.484375 21.921875 
Q 17.484375 14.15625 20.5 10.265625 
Q 23.53125 6.390625 29.59375 6.390625 
Q 36.859375 6.390625 41.078125 11.03125 
Q 45.3125 15.671875 45.3125 23.6875 
L 45.3125 54.6875 
L 54.296875 54.6875 
L 54.296875 0 
L 45.3125 0 
L 45.3125 8.40625 
Q 42.046875 3.421875 37.71875 1 
Q 33.40625 -1.421875 27.6875 -1.421875 
Q 18.265625 -1.421875 13.375 4.4375 
Q 8.5 10.296875 8.5 21.578125 
M 31.109375 56 
z
" id="DejaVuSans-75"/>
     </defs>
     <g transform="translate(307.843437 58.070438)scale(0.1 -0.1)">
      <use xlink:href="#DejaVuSans-61"/>
      <use x="61.279297" xlink:href="#DejaVuSans-63"/>
      <use x="116.259766" xlink:href="#DejaVuSans-74"/>
      <use x="155.46875" xlink:href="#DejaVuSans-75"/>
      <use x="218.847656" xlink:href="#DejaVuSans-61"/>
      <use x="280.126953" xlink:href="#DejaVuSans-6c"/>
     </g>
    </g>
    <g id="line2d_20">
     <path d="M 279.843437 69.248563 
L 299.843437 69.248563 
" style="fill:none;stroke:#ff7f0e;stroke-linecap:square;stroke-width:1.5;"/>
    </g>
    <g id="line2d_21"/>
    <g id="text_16">
     <!-- pred. (mean) -->
     <defs>
      <path d="M 18.109375 8.203125 
L 18.109375 -20.796875 
L 9.078125 -20.796875 
L 9.078125 54.6875 
L 18.109375 54.6875 
L 18.109375 46.390625 
Q 20.953125 51.265625 25.265625 53.625 
Q 29.59375 56 35.59375 56 
Q 45.5625 56 51.78125 48.09375 
Q 58.015625 40.1875 58.015625 27.296875 
Q 58.015625 14.40625 51.78125 6.484375 
Q 45.5625 -1.421875 35.59375 -1.421875 
Q 29.59375 -1.421875 25.265625 0.953125 
Q 20.953125 3.328125 18.109375 8.203125 
M 48.6875 27.296875 
Q 48.6875 37.203125 44.609375 42.84375 
Q 40.53125 48.484375 33.40625 48.484375 
Q 26.265625 48.484375 22.1875 42.84375 
Q 18.109375 37.203125 18.109375 27.296875 
Q 18.109375 17.390625 22.1875 11.75 
Q 26.265625 6.109375 33.40625 6.109375 
Q 40.53125 6.109375 44.609375 11.75 
Q 48.6875 17.390625 48.6875 27.296875 
" id="DejaVuSans-70"/>
      <path d="M 45.40625 46.390625 
L 45.40625 75.984375 
L 54.390625 75.984375 
L 54.390625 0 
L 45.40625 0 
L 45.40625 8.203125 
Q 42.578125 3.328125 38.25 0.953125 
Q 33.9375 -1.421875 27.875 -1.421875 
Q 17.96875 -1.421875 11.734375 6.484375 
Q 5.515625 14.40625 5.515625 27.296875 
Q 5.515625 40.1875 11.734375 48.09375 
Q 17.96875 56 27.875 56 
Q 33.9375 56 38.25 53.625 
Q 42.578125 51.265625 45.40625 46.390625 
M 14.796875 27.296875 
Q 14.796875 17.390625 18.875 11.75 
Q 22.953125 6.109375 30.078125 6.109375 
Q 37.203125 6.109375 41.296875 11.75 
Q 45.40625 17.390625 45.40625 27.296875 
Q 45.40625 37.203125 41.296875 42.84375 
Q 37.203125 48.484375 30.078125 48.484375 
Q 22.953125 48.484375 18.875 42.84375 
Q 14.796875 37.203125 14.796875 27.296875 
" id="DejaVuSans-64"/>
      <path d="M 31 75.875 
Q 24.46875 64.65625 21.28125 53.65625 
Q 18.109375 42.671875 18.109375 31.390625 
Q 18.109375 20.125 21.3125 9.0625 
Q 24.515625 -2 31 -13.1875 
L 23.1875 -13.1875 
Q 15.875 -1.703125 12.234375 9.375 
Q 8.59375 20.453125 8.59375 31.390625 
Q 8.59375 42.28125 12.203125 53.3125 
Q 15.828125 64.359375 23.1875 75.875 
z
" id="DejaVuSans-28"/>
      <path d="M 52 44.1875 
Q 55.375 50.25 60.0625 53.125 
Q 64.75 56 71.09375 56 
Q 79.640625 56 84.28125 50.015625 
Q 88.921875 44.046875 88.921875 33.015625 
L 88.921875 0 
L 79.890625 0 
L 79.890625 32.71875 
Q 79.890625 40.578125 77.09375 44.375 
Q 74.3125 48.1875 68.609375 48.1875 
Q 61.625 48.1875 57.5625 43.546875 
Q 53.515625 38.921875 53.515625 30.90625 
L 53.515625 0 
L 44.484375 0 
L 44.484375 32.71875 
Q 44.484375 40.625 41.703125 44.40625 
Q 38.921875 48.1875 33.109375 48.1875 
Q 26.21875 48.1875 22.15625 43.53125 
Q 18.109375 38.875 18.109375 30.90625 
L 18.109375 0 
L 9.078125 0 
L 9.078125 54.6875 
L 18.109375 54.6875 
L 18.109375 46.1875 
Q 21.1875 51.21875 25.484375 53.609375 
Q 29.78125 56 35.6875 56 
Q 41.65625 56 45.828125 52.96875 
Q 50 49.953125 52 44.1875 
" id="DejaVuSans-6d"/>
      <path d="M 8.015625 75.875 
L 15.828125 75.875 
Q 23.140625 64.359375 26.78125 53.3125 
Q 30.421875 42.28125 30.421875 31.390625 
Q 30.421875 20.453125 26.78125 9.375 
Q 23.140625 -1.703125 15.828125 -13.1875 
L 8.015625 -13.1875 
Q 14.5 -2 17.703125 9.0625 
Q 20.90625 20.125 20.90625 31.390625 
Q 20.90625 42.671875 17.703125 53.65625 
Q 14.5 64.65625 8.015625 75.875 
" id="DejaVuSans-29"/>
     </defs>
     <g transform="translate(307.843437 72.748563)scale(0.1 -0.1)">
      <use xlink:href="#DejaVuSans-70"/>
      <use x="63.476562" xlink:href="#DejaVuSans-72"/>
      <use x="104.558594" xlink:href="#DejaVuSans-65"/>
      <use x="166.082031" xlink:href="#DejaVuSans-64"/>
      <use x="229.558594" xlink:href="#DejaVuSans-2e"/>
      <use x="261.345703" xlink:href="#DejaVuSans-20"/>
      <use x="293.132812" xlink:href="#DejaVuSans-28"/>
      <use x="332.146484" xlink:href="#DejaVuSans-6d"/>
      <use x="429.558594" xlink:href="#DejaVuSans-65"/>
      <use x="491.082031" xlink:href="#DejaVuSans-61"/>
      <use x="552.361328" xlink:href="#DejaVuSans-6e"/>
      <use x="615.740234" xlink:href="#DejaVuSans-29"/>
     </g>
    </g>
    <g id="line2d_22">
     <path d="M 279.843437 83.926688 
L 299.843437 83.926688 
" style="fill:none;stroke:#2ca02c;stroke-linecap:square;stroke-width:1.5;"/>
    </g>
    <g id="line2d_23"/>
    <g id="text_17">
     <!-- pred.(5th percen.) -->
     <defs>
      <path d="M 54.890625 33.015625 
L 54.890625 0 
L 45.90625 0 
L 45.90625 32.71875 
Q 45.90625 40.484375 42.875 44.328125 
Q 39.84375 48.1875 33.796875 48.1875 
Q 26.515625 48.1875 22.3125 43.546875 
Q 18.109375 38.921875 18.109375 30.90625 
L 18.109375 0 
L 9.078125 0 
L 9.078125 75.984375 
L 18.109375 75.984375 
L 18.109375 46.1875 
Q 21.34375 51.125 25.703125 53.5625 
Q 30.078125 56 35.796875 56 
Q 45.21875 56 50.046875 50.171875 
Q 54.890625 44.34375 54.890625 33.015625 
" id="DejaVuSans-68"/>
     </defs>
     <g transform="translate(307.843437 87.426688)scale(0.1 -0.1)">
      <use xlink:href="#DejaVuSans-70"/>
      <use x="63.476562" xlink:href="#DejaVuSans-72"/>
      <use x="104.558594" xlink:href="#DejaVuSans-65"/>
      <use x="166.082031" xlink:href="#DejaVuSans-64"/>
      <use x="229.558594" xlink:href="#DejaVuSans-2e"/>
      <use x="261.345703" xlink:href="#DejaVuSans-28"/>
      <use x="300.359375" xlink:href="#DejaVuSans-35"/>
      <use x="363.982422" xlink:href="#DejaVuSans-74"/>
      <use x="403.191406" xlink:href="#DejaVuSans-68"/>
      <use x="466.570312" xlink:href="#DejaVuSans-20"/>
      <use x="498.357422" xlink:href="#DejaVuSans-70"/>
      <use x="561.833984" xlink:href="#DejaVuSans-65"/>
      <use x="623.357422" xlink:href="#DejaVuSans-72"/>
      <use x="664.439453" xlink:href="#DejaVuSans-63"/>
      <use x="719.419922" xlink:href="#DejaVuSans-65"/>
      <use x="780.943359" xlink:href="#DejaVuSans-6e"/>
      <use x="844.322266" xlink:href="#DejaVuSans-2e"/>
      <use x="876.109375" xlink:href="#DejaVuSans-29"/>
     </g>
    </g>
    <g id="line2d_24">
     <path d="M 279.843437 98.604813 
L 299.843437 98.604813 
" style="fill:none;stroke:#d62728;stroke-linecap:square;stroke-width:1.5;"/>
    </g>
    <g id="line2d_25"/>
    <g id="text_18">
     <!-- pred.(95th percen.) -->
     <defs>
      <path d="M 10.984375 1.515625 
L 10.984375 10.5 
Q 14.703125 8.734375 18.5 7.8125 
Q 22.3125 6.890625 25.984375 6.890625 
Q 35.75 6.890625 40.890625 13.453125 
Q 46.046875 20.015625 46.78125 33.40625 
Q 43.953125 29.203125 39.59375 26.953125 
Q 35.25 24.703125 29.984375 24.703125 
Q 19.046875 24.703125 12.671875 31.3125 
Q 6.296875 37.9375 6.296875 49.421875 
Q 6.296875 60.640625 12.9375 67.421875 
Q 19.578125 74.21875 30.609375 74.21875 
Q 43.265625 74.21875 49.921875 64.515625 
Q 56.59375 54.828125 56.59375 36.375 
Q 56.59375 19.140625 48.40625 8.859375 
Q 40.234375 -1.421875 26.421875 -1.421875 
Q 22.703125 -1.421875 18.890625 -0.6875 
Q 15.09375 0.046875 10.984375 1.515625 
M 30.609375 32.421875 
Q 37.25 32.421875 41.125 36.953125 
Q 45.015625 41.5 45.015625 49.421875 
Q 45.015625 57.28125 41.125 61.84375 
Q 37.25 66.40625 30.609375 66.40625 
Q 23.96875 66.40625 20.09375 61.84375 
Q 16.21875 57.28125 16.21875 49.421875 
Q 16.21875 41.5 20.09375 36.953125 
Q 23.96875 32.421875 30.609375 32.421875 
" id="DejaVuSans-39"/>
     </defs>
     <g transform="translate(307.843437 102.104813)scale(0.1 -0.1)">
      <use xlink:href="#DejaVuSans-70"/>
      <use x="63.476562" xlink:href="#DejaVuSans-72"/>
      <use x="104.558594" xlink:href="#DejaVuSans-65"/>
      <use x="166.082031" xlink:href="#DejaVuSans-64"/>
      <use x="229.558594" xlink:href="#DejaVuSans-2e"/>
      <use x="261.345703" xlink:href="#DejaVuSans-28"/>
      <use x="300.359375" xlink:href="#DejaVuSans-39"/>
      <use x="363.982422" xlink:href="#DejaVuSans-35"/>
      <use x="427.605469" xlink:href="#DejaVuSans-74"/>
      <use x="466.814453" xlink:href="#DejaVuSans-68"/>
      <use x="530.193359" xlink:href="#DejaVuSans-20"/>
      <use x="561.980469" xlink:href="#DejaVuSans-70"/>
      <use x="625.457031" xlink:href="#DejaVuSans-65"/>
      <use x="686.980469" xlink:href="#DejaVuSans-72"/>
      <use x="728.0625" xlink:href="#DejaVuSans-63"/>
      <use x="783.042969" xlink:href="#DejaVuSans-65"/>
      <use x="844.566406" xlink:href="#DejaVuSans-6e"/>
      <use x="907.945312" xlink:href="#DejaVuSans-2e"/>
      <use x="939.732422" xlink:href="#DejaVuSans-29"/>
     </g>
    </g>
   </g>
  </g>
 </g>
 <defs>
  <clipPath id="pdcc634dc35">
   <rect height="266.112" width="357.12" x="57.6" y="41.472"/>
  </clipPath>
 </defs>
</svg>
