<?xml version="1.0" encoding="utf-8" standalone="no"?>
<!DOCTYPE svg PUBLIC "-//W3C//DTD SVG 1.1//EN"
  "http://www.w3.org/Graphics/SVG/1.1/DTD/svg11.dtd">
<!-- Created with matplotlib (http://matplotlib.org/) -->
<svg height="345pt" version="1.1" viewBox="0 0 460 345" width="460pt" xmlns="http://www.w3.org/2000/svg" xmlns:xlink="http://www.w3.org/1999/xlink">
 <defs>
  <style type="text/css">
*{stroke-linecap:butt;stroke-linejoin:round;}
  </style>
 </defs>
 <g id="figure_1">
  <g id="patch_1">
   <path d="M 0 345.6 
L 460.8 345.6 
L 460.8 0 
L 0 0 
z
" style="fill:#ffffff;"/>
  </g>
  <g id="axes_1">
   <g id="patch_2">
    <path d="M 57.6 307.584 
L 414.72 307.584 
L 414.72 41.472 
L 57.6 41.472 
z
" style="fill:#ffffff;"/>
   </g>
   <g id="PolyCollection_1">
    <path clip-path="url(#p12fc66bb39)" d="M 73.832727 283.262234 
L 73.832727 286.211766 
L 74.92584 286.997262 
L 76.018953 286.371449 
L 77.112066 286.459789 
L 78.205179 283.070591 
L 79.298292 278.077697 
L 80.391405 275.665691 
L 81.484518 264.681987 
L 82.577631 252.599587 
L 83.670744 232.861393 
L 84.763857 207.625896 
L 85.85697 192.097648 
L 86.950083 167.850154 
L 88.043196 147.565313 
L 89.136309 126.906257 
L 90.229421 122.107485 
L 91.322534 113.535837 
L 92.415647 85.451859 
L 93.50876 75.19961 
L 94.601873 77.203451 
L 95.694986 73.192738 
L 96.788099 69.884831 
L 97.881212 72.521486 
L 98.974325 82.788497 
L 100.067438 94.740148 
L 101.160551 89.885661 
L 102.253664 103.773807 
L 103.346777 115.867026 
L 104.43989 123.682345 
L 105.533003 137.326095 
L 106.626116 140.440859 
L 107.719229 166.102892 
L 108.812342 176.229985 
L 109.905455 155.284811 
L 110.998567 155.819949 
L 112.09168 162.696043 
L 113.184793 166.821238 
L 114.277906 163.129078 
L 115.371019 167.030962 
L 116.464132 189.986475 
L 117.557245 196.995265 
L 118.650358 201.448966 
L 119.743471 218.219047 
L 120.836584 220.642143 
L 121.929697 219.746908 
L 123.02281 229.227321 
L 124.115923 238.120368 
L 125.209036 240.574684 
L 126.302149 241.793864 
L 127.395262 248.909572 
L 128.488375 257.925545 
L 129.581488 260.985776 
L 130.674601 257.938225 
L 131.767713 261.041336 
L 132.860826 265.274434 
L 133.953939 268.705761 
L 135.047052 270.239451 
L 136.140165 273.575898 
L 137.233278 280.597675 
L 138.326391 282.379835 
L 139.419504 280.744299 
L 140.512617 279.616878 
L 141.60573 280.290989 
L 142.698843 277.654993 
L 143.791956 275.836167 
L 144.885069 274.010478 
L 145.978182 266.858149 
L 147.071295 256.248151 
L 148.164408 248.430838 
L 149.257521 245.259422 
L 150.350634 238.191539 
L 151.443747 229.324132 
L 152.53686 227.223407 
L 153.629972 223.370845 
L 154.723085 215.628635 
L 155.816198 204.819515 
L 156.909311 197.185473 
L 158.002424 194.595608 
L 159.095537 193.140649 
L 160.18865 195.58264 
L 161.281763 189.511167 
L 162.374876 167.85795 
L 163.467989 136.997341 
L 164.561102 121.682028 
L 165.654215 108.386509 
L 166.747328 95.989325 
L 167.840441 84.245887 
L 168.933554 89.520396 
L 170.026667 101.726611 
L 171.11978 92.781585 
L 172.212893 91.327235 
L 173.306006 95.348787 
L 174.399118 111.75872 
L 175.492231 124.915861 
L 176.585344 135.447073 
L 177.678457 156.178996 
L 178.77157 164.719423 
L 179.864683 174.631467 
L 180.957796 178.612206 
L 182.050909 180.5638 
L 183.144022 184.666426 
L 184.237135 194.22289 
L 185.330248 189.930305 
L 186.423361 188.618804 
L 187.516474 190.34514 
L 188.609587 193.403329 
L 189.7027 195.971073 
L 190.795813 193.927186 
L 191.888926 202.745117 
L 192.982039 199.985775 
L 194.075152 202.600305 
L 195.168264 208.468973 
L 196.261377 207.820058 
L 197.35449 215.033437 
L 198.447603 221.98751 
L 199.540716 226.658043 
L 200.633829 226.746281 
L 201.726942 224.323399 
L 202.820055 232.961975 
L 203.913168 239.3489 
L 205.006281 245.007823 
L 206.099394 249.270677 
L 207.192507 254.930851 
L 208.28562 262.452541 
L 209.378733 266.512154 
L 210.471846 266.215754 
L 211.564959 268.015696 
L 212.658072 272.776099 
L 213.751185 277.05312 
L 214.844298 281.299437 
L 215.93741 284.421771 
L 217.030523 288.38191 
L 218.123636 290.411486 
L 219.216749 291.535477 
L 220.309862 291.783691 
L 221.402975 291.188988 
L 222.496088 291.223827 
L 223.589201 290.130069 
L 224.682314 288.979346 
L 225.775427 286.744232 
L 226.86854 282.709311 
L 227.961653 277.636851 
L 229.054766 268.484271 
L 230.147879 259.582035 
L 231.240992 249.399723 
L 232.334105 240.431051 
L 233.427218 232.750039 
L 234.520331 221.134138 
L 235.613444 209.57485 
L 236.706556 201.525453 
L 237.799669 187.764255 
L 238.892782 175.231747 
L 239.985895 164.183274 
L 241.079008 153.039513 
L 242.172121 145.453983 
L 243.265234 143.848017 
L 244.358347 143.850879 
L 245.45146 144.360728 
L 246.544573 136.543234 
L 247.637686 140.41513 
L 248.730799 145.274288 
L 249.823912 143.577909 
L 250.917025 146.365051 
L 252.010138 147.05296 
L 253.103251 158.237998 
L 254.196364 163.388345 
L 255.289477 172.054863 
L 256.38259 175.335354 
L 257.475702 182.702751 
L 258.568815 192.936666 
L 259.661928 189.237905 
L 260.755041 194.278783 
L 261.848154 199.107114 
L 262.941267 206.735924 
L 264.03438 204.526755 
L 265.127493 205.575691 
L 266.220606 219.301149 
L 267.313719 225.7033 
L 268.406832 227.579333 
L 269.499945 225.843821 
L 270.593058 227.027708 
L 271.686171 229.323255 
L 272.779284 224.140253 
L 273.872397 221.105634 
L 274.96551 220.631549 
L 276.058623 223.33289 
L 277.151736 228.075993 
L 278.244848 230.288328 
L 279.337961 237.629842 
L 280.431074 241.318604 
L 281.524187 246.9098 
L 282.6173 252.036995 
L 283.710413 253.387528 
L 284.803526 258.097781 
L 285.896639 263.353621 
L 286.989752 268.954273 
L 288.082865 270.868479 
L 289.175978 275.880278 
L 290.269091 283.62058 
L 291.362204 286.360796 
L 292.455317 288.759688 
L 293.54843 289.649893 
L 294.641543 289.55219 
L 295.734656 286.415384 
L 296.827769 282.555011 
L 297.920882 275.867259 
L 299.013994 267.978839 
L 300.107107 258.694251 
L 301.20022 244.253458 
L 302.293333 229.614423 
L 303.386446 218.67585 
L 304.479559 211.64278 
L 305.572672 191.020351 
L 306.665785 181.721258 
L 307.758898 182.591608 
L 308.852011 173.497418 
L 309.945124 152.425377 
L 311.038237 122.204844 
L 312.13135 111.529533 
L 313.224463 93.149285 
L 314.317576 77.642435 
L 315.410689 74.762586 
L 316.503802 76.039182 
L 317.596915 78.362728 
L 318.690028 86.472978 
L 319.78314 97.203199 
L 320.876253 111.852476 
L 321.969366 118.704414 
L 323.062479 124.747673 
L 324.155592 142.439644 
L 325.248705 136.443806 
L 326.341818 134.822376 
L 327.434931 129.955911 
L 328.528044 130.746401 
L 329.621157 131.737051 
L 330.71427 144.389512 
L 331.807383 162.466362 
L 332.900496 172.894914 
L 333.993609 190.578229 
L 335.086722 198.324201 
L 336.179835 209.964047 
L 337.272948 217.763823 
L 338.366061 215.097539 
L 339.459174 217.63748 
L 340.552287 223.516672 
L 341.645399 232.885412 
L 342.738512 242.461504 
L 343.831625 244.202161 
L 344.924738 253.639314 
L 346.017851 265.686051 
L 347.110964 269.47876 
L 348.204077 272.42557 
L 349.29719 273.273268 
L 350.390303 277.773238 
L 351.483416 280.754393 
L 352.576529 280.761638 
L 353.669642 280.5899 
L 354.762755 280.594652 
L 355.855868 282.028592 
L 356.948981 280.470028 
L 358.042094 278.147529 
L 359.135207 278.706635 
L 360.22832 279.03281 
L 361.321433 281.021491 
L 362.414545 282.779842 
L 363.507658 285.779691 
L 364.600771 287.913175 
L 365.693884 289.376429 
L 366.786997 290.956318 
L 367.88011 291.752373 
L 368.973223 292.587495 
L 370.066336 292.604885 
L 371.159449 292.590448 
L 372.252562 291.441965 
L 373.345675 289.91245 
L 374.438788 287.554323 
L 375.531901 282.164297 
L 376.625014 277.426058 
L 377.718127 270.76225 
L 378.81124 260.438507 
L 379.904353 248.572358 
L 380.997466 243.504968 
L 382.090579 236.062148 
L 383.183691 227.552259 
L 384.276804 217.847231 
L 385.369917 216.857463 
L 386.46303 212.410983 
L 387.556143 207.058138 
L 388.649256 203.587466 
L 389.742369 193.18641 
L 390.835482 202.103751 
L 391.928595 206.526682 
L 393.021708 202.064352 
L 394.114821 199.096521 
L 395.207934 206.540393 
L 396.301047 212.86212 
L 397.39416 204.429393 
L 398.487273 201.593681 
L 398.487273 196.546287 
L 398.487273 196.546287 
L 397.39416 196.778054 
L 396.301047 208.249092 
L 395.207934 201.446614 
L 394.114821 194.592691 
L 393.021708 196.815797 
L 391.928595 201.141466 
L 390.835482 196.12642 
L 389.742369 188.088686 
L 388.649256 198.942784 
L 387.556143 202.628801 
L 386.46303 206.970343 
L 385.369917 210.864897 
L 384.276804 212.340521 
L 383.183691 222.996945 
L 382.090579 231.471536 
L 380.997466 239.315505 
L 379.904353 243.963539 
L 378.81124 253.654105 
L 377.718127 267.04856 
L 376.625014 274.47414 
L 375.531901 279.105661 
L 374.438788 284.836986 
L 373.345675 287.068702 
L 372.252562 288.484285 
L 371.159449 289.492074 
L 370.066336 289.464015 
L 368.973223 289.280215 
L 367.88011 288.522118 
L 366.786997 287.593822 
L 365.693884 286.099564 
L 364.600771 284.610118 
L 363.507658 282.307563 
L 362.414545 279.778221 
L 361.321433 277.8014 
L 360.22832 276.216234 
L 359.135207 275.912094 
L 358.042094 275.446762 
L 356.948981 277.705728 
L 355.855868 278.957869 
L 354.762755 277.849747 
L 353.669642 277.823729 
L 352.576529 278.001403 
L 351.483416 277.443902 
L 350.390303 274.043578 
L 349.29719 270.174198 
L 348.204077 268.864421 
L 347.110964 265.129601 
L 346.017851 259.028997 
L 344.924738 247.12778 
L 343.831625 239.080991 
L 342.738512 237.192672 
L 341.645399 227.29385 
L 340.552287 218.952465 
L 339.459174 213.098756 
L 338.366061 210.514734 
L 337.272948 212.255667 
L 336.179835 204.715979 
L 335.086722 192.329035 
L 333.993609 184.932977 
L 332.900496 167.063708 
L 331.807383 156.494047 
L 330.71427 135.511112 
L 329.621157 125.631509 
L 328.528044 124.481493 
L 327.434931 122.889629 
L 326.341818 129.005479 
L 325.248705 129.982888 
L 324.155592 135.975575 
L 323.062479 117.292866 
L 321.969366 112.345666 
L 320.876253 105.170953 
L 319.78314 90.733956 
L 318.690028 78.610503 
L 317.596915 69.75921 
L 316.503802 67.561523 
L 315.410689 67.194274 
L 314.317576 69.7433 
L 313.224463 86.473701 
L 312.13135 104.120356 
L 311.038237 112.168963 
L 309.945124 145.340648 
L 308.852011 168.342097 
L 307.758898 177.15721 
L 306.665785 176.31036 
L 305.572672 184.881874 
L 304.479559 205.735403 
L 303.386446 213.807647 
L 302.293333 224.279113 
L 301.20022 237.759155 
L 300.107107 253.703099 
L 299.013994 263.844364 
L 297.920882 272.103607 
L 296.827769 279.791584 
L 295.734656 283.628523 
L 294.641543 286.570739 
L 293.54843 286.518688 
L 292.455317 285.350753 
L 291.362204 282.885387 
L 290.269091 278.899994 
L 289.175978 271.756835 
L 288.082865 267.376798 
L 286.989752 264.455271 
L 285.896639 258.730754 
L 284.803526 253.347425 
L 283.710413 249.092632 
L 282.6173 247.177889 
L 281.524187 241.313277 
L 280.431074 236.740144 
L 279.337961 232.028332 
L 278.244848 225.917477 
L 277.151736 223.297672 
L 276.058623 218.542036 
L 274.96551 216.364291 
L 273.872397 216.758268 
L 272.779284 219.221793 
L 271.686171 224.758949 
L 270.593058 222.593579 
L 269.499945 221.52748 
L 268.406832 222.996832 
L 267.313719 220.788185 
L 266.220606 213.712772 
L 265.127493 200.894206 
L 264.03438 198.510457 
L 262.941267 202.016708 
L 261.848154 194.163818 
L 260.755041 189.487272 
L 259.661928 184.365578 
L 258.568815 185.971884 
L 257.475702 176.840908 
L 256.38259 169.153221 
L 255.289477 166.378704 
L 254.196364 157.820982 
L 253.103251 152.359463 
L 252.010138 139.447936 
L 250.917025 140.651207 
L 249.823912 136.977753 
L 248.730799 139.497033 
L 247.637686 132.705007 
L 246.544573 130.474844 
L 245.45146 138.494398 
L 244.358347 137.950168 
L 243.265234 135.909925 
L 242.172121 139.370773 
L 241.079008 146.755924 
L 239.985895 158.299533 
L 238.892782 169.675544 
L 237.799669 182.670061 
L 236.706556 196.245075 
L 235.613444 204.745502 
L 234.520331 216.221409 
L 233.427218 228.054314 
L 232.334105 235.73467 
L 231.240992 243.949863 
L 230.147879 255.189403 
L 229.054766 263.847129 
L 227.961653 274.348126 
L 226.86854 279.948126 
L 225.775427 284.038861 
L 224.682314 286.154234 
L 223.589201 287.239158 
L 222.496088 288.150023 
L 221.402975 288.199251 
L 220.309862 288.65656 
L 219.216749 288.250906 
L 218.123636 286.938718 
L 217.030523 284.62341 
L 215.93741 280.912906 
L 214.844298 277.527694 
L 213.751185 273.247342 
L 212.658072 268.764163 
L 211.564959 264.559909 
L 210.471846 262.826333 
L 209.378733 262.249741 
L 208.28562 257.164184 
L 207.192507 249.524401 
L 206.099394 244.421964 
L 205.006281 240.035393 
L 203.913168 234.337608 
L 202.820055 227.444824 
L 201.726942 220.02275 
L 200.633829 222.33287 
L 199.540716 222.078064 
L 198.447603 217.386217 
L 197.35449 209.915837 
L 196.261377 202.270544 
L 195.168264 203.589708 
L 194.075152 197.738598 
L 192.982039 195.121544 
L 191.888926 197.744152 
L 190.795813 189.208839 
L 189.7027 190.918184 
L 188.609587 188.75689 
L 187.516474 185.506736 
L 186.423361 183.410193 
L 185.330248 185.031182 
L 184.237135 188.100332 
L 183.144022 179.649868 
L 182.050909 174.750116 
L 180.957796 173.246618 
L 179.864683 169.268145 
L 178.77157 157.767302 
L 177.678457 147.73497 
L 176.585344 128.754252 
L 175.492231 118.265797 
L 174.399118 104.965949 
L 173.306006 89.489794 
L 172.212893 85.332414 
L 171.11978 85.661395 
L 170.026667 94.786011 
L 168.933554 82.859292 
L 167.840441 76.293056 
L 166.747328 89.956227 
L 165.654215 99.470398 
L 164.561102 113.773799 
L 163.467989 129.604233 
L 162.374876 161.26812 
L 161.281763 184.654034 
L 160.18865 190.898594 
L 159.095537 188.363946 
L 158.002424 189.850607 
L 156.909311 191.553487 
L 155.816198 197.829657 
L 154.723085 210.980688 
L 153.629972 219.062419 
L 152.53686 222.948054 
L 151.443747 224.750224 
L 150.350634 233.834632 
L 149.257521 241.182426 
L 148.164408 244.161067 
L 147.071295 250.990969 
L 145.978182 262.436178 
L 144.885069 271.078639 
L 143.791956 273.107624 
L 142.698843 274.944719 
L 141.60573 277.516987 
L 140.512617 276.919021 
L 139.419504 278.047869 
L 138.326391 279.29189 
L 137.233278 275.97696 
L 136.140165 269.950136 
L 135.047052 266.875298 
L 133.953939 264.891093 
L 132.860826 260.979502 
L 131.767713 256.499553 
L 130.674601 253.925684 
L 129.581488 256.433671 
L 128.488375 252.200858 
L 127.395262 242.774269 
L 126.302149 237.238313 
L 125.209036 236.018866 
L 124.115923 232.75179 
L 123.02281 224.081512 
L 121.929697 215.164945 
L 120.836584 215.41428 
L 119.743471 212.826356 
L 118.650358 196.362235 
L 117.557245 190.315309 
L 116.464132 183.762139 
L 115.371019 160.830664 
L 114.277906 157.721356 
L 113.184793 161.448325 
L 112.09168 157.042089 
L 110.998567 146.748883 
L 109.905455 147.446404 
L 108.812342 169.014142 
L 107.719229 159.112379 
L 106.626116 133.305102 
L 105.533003 130.532381 
L 104.43989 117.071195 
L 103.346777 109.132995 
L 102.253664 96.895161 
L 101.160551 82.31492 
L 100.067438 85.883592 
L 98.974325 74.346717 
L 97.881212 63.099359 
L 96.788099 61.222156 
L 95.694986 63.308122 
L 94.601873 69.373151 
L 93.50876 68.00623 
L 92.415647 76.915841 
L 91.322534 107.73684 
L 90.229421 112.525886 
L 89.136309 118.565242 
L 88.043196 139.651315 
L 86.950083 161.57577 
L 85.85697 186.391952 
L 84.763857 201.25398 
L 83.670744 224.234304 
L 82.577631 247.246988 
L 81.484518 257.872692 
L 80.391405 272.834091 
L 79.298292 275.18772 
L 78.205179 280.230396 
L 77.112066 283.619567 
L 76.018953 283.599889 
L 74.92584 284.033242 
L 73.832727 283.262234 
z
" style="fill:#008000;fill-opacity:0.4;"/>
   </g>
   <g id="matplotlib.axis_1">
    <g id="xtick_1">
     <g id="line2d_1">
      <defs>
       <path d="M 0 0 
L 0 3.5 
" id="m578550ef57" style="stroke:#000000;stroke-width:0.8;"/>
      </defs>
      <g>
       <use style="stroke:#000000;stroke-width:0.8;" x="73.832727" xlink:href="#m578550ef57" y="307.584"/>
      </g>
     </g>
     <g id="text_1">
      <!-- 0.0 -->
      <defs>
       <path d="M 31.78125 66.40625 
Q 24.171875 66.40625 20.328125 58.90625 
Q 16.5 51.421875 16.5 36.375 
Q 16.5 21.390625 20.328125 13.890625 
Q 24.171875 6.390625 31.78125 6.390625 
Q 39.453125 6.390625 43.28125 13.890625 
Q 47.125 21.390625 47.125 36.375 
Q 47.125 51.421875 43.28125 58.90625 
Q 39.453125 66.40625 31.78125 66.40625 
M 31.78125 74.21875 
Q 44.046875 74.21875 50.515625 64.515625 
Q 56.984375 54.828125 56.984375 36.375 
Q 56.984375 17.96875 50.515625 8.265625 
Q 44.046875 -1.421875 31.78125 -1.421875 
Q 19.53125 -1.421875 13.0625 8.265625 
Q 6.59375 17.96875 6.59375 36.375 
Q 6.59375 54.828125 13.0625 64.515625 
Q 19.53125 74.21875 31.78125 74.21875 
" id="DejaVuSans-30"/>
       <path d="M 10.6875 12.40625 
L 21 12.40625 
L 21 0 
L 10.6875 0 
z
" id="DejaVuSans-2e"/>
      </defs>
      <g transform="translate(65.881165 322.182437)scale(0.1 -0.1)">
       <use xlink:href="#DejaVuSans-30"/>
       <use x="63.623047" xlink:href="#DejaVuSans-2e"/>
       <use x="95.410156" xlink:href="#DejaVuSans-30"/>
      </g>
     </g>
    </g>
    <g id="xtick_2">
     <g id="line2d_2">
      <g>
       <use style="stroke:#000000;stroke-width:0.8;" x="138.763636" xlink:href="#m578550ef57" y="307.584"/>
      </g>
     </g>
     <g id="text_2">
      <!-- 0.2 -->
      <defs>
       <path d="M 19.1875 8.296875 
L 53.609375 8.296875 
L 53.609375 0 
L 7.328125 0 
L 7.328125 8.296875 
Q 12.9375 14.109375 22.625 23.890625 
Q 32.328125 33.6875 34.8125 36.53125 
Q 39.546875 41.84375 41.421875 45.53125 
Q 43.3125 49.21875 43.3125 52.78125 
Q 43.3125 58.59375 39.234375 62.25 
Q 35.15625 65.921875 28.609375 65.921875 
Q 23.96875 65.921875 18.8125 64.3125 
Q 13.671875 62.703125 7.8125 59.421875 
L 7.8125 69.390625 
Q 13.765625 71.78125 18.9375 73 
Q 24.125 74.21875 28.421875 74.21875 
Q 39.75 74.21875 46.484375 68.546875 
Q 53.21875 62.890625 53.21875 53.421875 
Q 53.21875 48.921875 51.53125 44.890625 
Q 49.859375 40.875 45.40625 35.40625 
Q 44.1875 33.984375 37.640625 27.21875 
Q 31.109375 20.453125 19.1875 8.296875 
" id="DejaVuSans-32"/>
      </defs>
      <g transform="translate(130.812074 322.182437)scale(0.1 -0.1)">
       <use xlink:href="#DejaVuSans-30"/>
       <use x="63.623047" xlink:href="#DejaVuSans-2e"/>
       <use x="95.410156" xlink:href="#DejaVuSans-32"/>
      </g>
     </g>
    </g>
    <g id="xtick_3">
     <g id="line2d_3">
      <g>
       <use style="stroke:#000000;stroke-width:0.8;" x="203.694545" xlink:href="#m578550ef57" y="307.584"/>
      </g>
     </g>
     <g id="text_3">
      <!-- 0.4 -->
      <defs>
       <path d="M 37.796875 64.3125 
L 12.890625 25.390625 
L 37.796875 25.390625 
z
M 35.203125 72.90625 
L 47.609375 72.90625 
L 47.609375 25.390625 
L 58.015625 25.390625 
L 58.015625 17.1875 
L 47.609375 17.1875 
L 47.609375 0 
L 37.796875 0 
L 37.796875 17.1875 
L 4.890625 17.1875 
L 4.890625 26.703125 
z
" id="DejaVuSans-34"/>
      </defs>
      <g transform="translate(195.742983 322.182437)scale(0.1 -0.1)">
       <use xlink:href="#DejaVuSans-30"/>
       <use x="63.623047" xlink:href="#DejaVuSans-2e"/>
       <use x="95.410156" xlink:href="#DejaVuSans-34"/>
      </g>
     </g>
    </g>
    <g id="xtick_4">
     <g id="line2d_4">
      <g>
       <use style="stroke:#000000;stroke-width:0.8;" x="268.625455" xlink:href="#m578550ef57" y="307.584"/>
      </g>
     </g>
     <g id="text_4">
      <!-- 0.6 -->
      <defs>
       <path d="M 33.015625 40.375 
Q 26.375 40.375 22.484375 35.828125 
Q 18.609375 31.296875 18.609375 23.390625 
Q 18.609375 15.53125 22.484375 10.953125 
Q 26.375 6.390625 33.015625 6.390625 
Q 39.65625 6.390625 43.53125 10.953125 
Q 47.40625 15.53125 47.40625 23.390625 
Q 47.40625 31.296875 43.53125 35.828125 
Q 39.65625 40.375 33.015625 40.375 
M 52.59375 71.296875 
L 52.59375 62.3125 
Q 48.875 64.0625 45.09375 64.984375 
Q 41.3125 65.921875 37.59375 65.921875 
Q 27.828125 65.921875 22.671875 59.328125 
Q 17.53125 52.734375 16.796875 39.40625 
Q 19.671875 43.65625 24.015625 45.921875 
Q 28.375 48.1875 33.59375 48.1875 
Q 44.578125 48.1875 50.953125 41.515625 
Q 57.328125 34.859375 57.328125 23.390625 
Q 57.328125 12.15625 50.6875 5.359375 
Q 44.046875 -1.421875 33.015625 -1.421875 
Q 20.359375 -1.421875 13.671875 8.265625 
Q 6.984375 17.96875 6.984375 36.375 
Q 6.984375 53.65625 15.1875 63.9375 
Q 23.390625 74.21875 37.203125 74.21875 
Q 40.921875 74.21875 44.703125 73.484375 
Q 48.484375 72.75 52.59375 71.296875 
" id="DejaVuSans-36"/>
      </defs>
      <g transform="translate(260.673892 322.182437)scale(0.1 -0.1)">
       <use xlink:href="#DejaVuSans-30"/>
       <use x="63.623047" xlink:href="#DejaVuSans-2e"/>
       <use x="95.410156" xlink:href="#DejaVuSans-36"/>
      </g>
     </g>
    </g>
    <g id="xtick_5">
     <g id="line2d_5">
      <g>
       <use style="stroke:#000000;stroke-width:0.8;" x="333.556364" xlink:href="#m578550ef57" y="307.584"/>
      </g>
     </g>
     <g id="text_5">
      <!-- 0.8 -->
      <defs>
       <path d="M 31.78125 34.625 
Q 24.75 34.625 20.71875 30.859375 
Q 16.703125 27.09375 16.703125 20.515625 
Q 16.703125 13.921875 20.71875 10.15625 
Q 24.75 6.390625 31.78125 6.390625 
Q 38.8125 6.390625 42.859375 10.171875 
Q 46.921875 13.96875 46.921875 20.515625 
Q 46.921875 27.09375 42.890625 30.859375 
Q 38.875 34.625 31.78125 34.625 
M 21.921875 38.8125 
Q 15.578125 40.375 12.03125 44.71875 
Q 8.5 49.078125 8.5 55.328125 
Q 8.5 64.0625 14.71875 69.140625 
Q 20.953125 74.21875 31.78125 74.21875 
Q 42.671875 74.21875 48.875 69.140625 
Q 55.078125 64.0625 55.078125 55.328125 
Q 55.078125 49.078125 51.53125 44.71875 
Q 48 40.375 41.703125 38.8125 
Q 48.828125 37.15625 52.796875 32.3125 
Q 56.78125 27.484375 56.78125 20.515625 
Q 56.78125 9.90625 50.3125 4.234375 
Q 43.84375 -1.421875 31.78125 -1.421875 
Q 19.734375 -1.421875 13.25 4.234375 
Q 6.78125 9.90625 6.78125 20.515625 
Q 6.78125 27.484375 10.78125 32.3125 
Q 14.796875 37.15625 21.921875 38.8125 
M 18.3125 54.390625 
Q 18.3125 48.734375 21.84375 45.5625 
Q 25.390625 42.390625 31.78125 42.390625 
Q 38.140625 42.390625 41.71875 45.5625 
Q 45.3125 48.734375 45.3125 54.390625 
Q 45.3125 60.0625 41.71875 63.234375 
Q 38.140625 66.40625 31.78125 66.40625 
Q 25.390625 66.40625 21.84375 63.234375 
Q 18.3125 60.0625 18.3125 54.390625 
" id="DejaVuSans-38"/>
      </defs>
      <g transform="translate(325.604801 322.182437)scale(0.1 -0.1)">
       <use xlink:href="#DejaVuSans-30"/>
       <use x="63.623047" xlink:href="#DejaVuSans-2e"/>
       <use x="95.410156" xlink:href="#DejaVuSans-38"/>
      </g>
     </g>
    </g>
    <g id="xtick_6">
     <g id="line2d_6">
      <g>
       <use style="stroke:#000000;stroke-width:0.8;" x="398.487273" xlink:href="#m578550ef57" y="307.584"/>
      </g>
     </g>
     <g id="text_6">
      <!-- 1.0 -->
      <defs>
       <path d="M 12.40625 8.296875 
L 28.515625 8.296875 
L 28.515625 63.921875 
L 10.984375 60.40625 
L 10.984375 69.390625 
L 28.421875 72.90625 
L 38.28125 72.90625 
L 38.28125 8.296875 
L 54.390625 8.296875 
L 54.390625 0 
L 12.40625 0 
z
" id="DejaVuSans-31"/>
      </defs>
      <g transform="translate(390.53571 322.182437)scale(0.1 -0.1)">
       <use xlink:href="#DejaVuSans-31"/>
       <use x="63.623047" xlink:href="#DejaVuSans-2e"/>
       <use x="95.410156" xlink:href="#DejaVuSans-30"/>
      </g>
     </g>
    </g>
   </g>
   <g id="matplotlib.axis_2">
    <g id="ytick_1">
     <g id="line2d_7">
      <defs>
       <path d="M 0 0 
L -3.5 0 
" id="me7c33aea10" style="stroke:#000000;stroke-width:0.8;"/>
      </defs>
      <g>
       <use style="stroke:#000000;stroke-width:0.8;" x="57.6" xlink:href="#me7c33aea10" y="299.17887"/>
      </g>
     </g>
     <g id="text_7">
      <!-- 0.0 -->
      <g transform="translate(34.696875 302.978089)scale(0.1 -0.1)">
       <use xlink:href="#DejaVuSans-30"/>
       <use x="63.623047" xlink:href="#DejaVuSans-2e"/>
       <use x="95.410156" xlink:href="#DejaVuSans-30"/>
      </g>
     </g>
    </g>
    <g id="ytick_2">
     <g id="line2d_8">
      <g>
       <use style="stroke:#000000;stroke-width:0.8;" x="57.6" xlink:href="#me7c33aea10" y="249.553394"/>
      </g>
     </g>
     <g id="text_8">
      <!-- 0.2 -->
      <g transform="translate(34.696875 253.352613)scale(0.1 -0.1)">
       <use xlink:href="#DejaVuSans-30"/>
       <use x="63.623047" xlink:href="#DejaVuSans-2e"/>
       <use x="95.410156" xlink:href="#DejaVuSans-32"/>
      </g>
     </g>
    </g>
    <g id="ytick_3">
     <g id="line2d_9">
      <g>
       <use style="stroke:#000000;stroke-width:0.8;" x="57.6" xlink:href="#me7c33aea10" y="199.927919"/>
      </g>
     </g>
     <g id="text_9">
      <!-- 0.4 -->
      <g transform="translate(34.696875 203.727138)scale(0.1 -0.1)">
       <use xlink:href="#DejaVuSans-30"/>
       <use x="63.623047" xlink:href="#DejaVuSans-2e"/>
       <use x="95.410156" xlink:href="#DejaVuSans-34"/>
      </g>
     </g>
    </g>
    <g id="ytick_4">
     <g id="line2d_10">
      <g>
       <use style="stroke:#000000;stroke-width:0.8;" x="57.6" xlink:href="#me7c33aea10" y="150.302443"/>
      </g>
     </g>
     <g id="text_10">
      <!-- 0.6 -->
      <g transform="translate(34.696875 154.101662)scale(0.1 -0.1)">
       <use xlink:href="#DejaVuSans-30"/>
       <use x="63.623047" xlink:href="#DejaVuSans-2e"/>
       <use x="95.410156" xlink:href="#DejaVuSans-36"/>
      </g>
     </g>
    </g>
    <g id="ytick_5">
     <g id="line2d_11">
      <g>
       <use style="stroke:#000000;stroke-width:0.8;" x="57.6" xlink:href="#me7c33aea10" y="100.676968"/>
      </g>
     </g>
     <g id="text_11">
      <!-- 0.8 -->
      <g transform="translate(34.696875 104.476186)scale(0.1 -0.1)">
       <use xlink:href="#DejaVuSans-30"/>
       <use x="63.623047" xlink:href="#DejaVuSans-2e"/>
       <use x="95.410156" xlink:href="#DejaVuSans-38"/>
      </g>
     </g>
    </g>
    <g id="ytick_6">
     <g id="line2d_12">
      <g>
       <use style="stroke:#000000;stroke-width:0.8;" x="57.6" xlink:href="#me7c33aea10" y="51.051492"/>
      </g>
     </g>
     <g id="text_12">
      <!-- 1.0 -->
      <g transform="translate(34.696875 54.850711)scale(0.1 -0.1)">
       <use xlink:href="#DejaVuSans-31"/>
       <use x="63.623047" xlink:href="#DejaVuSans-2e"/>
       <use x="95.410156" xlink:href="#DejaVuSans-30"/>
      </g>
     </g>
    </g>
   </g>
   <g id="line2d_13">
    <path clip-path="url(#p12fc66bb39)" d="M 73.832727 286.596355 
L 74.92584 286.764114 
L 76.018953 286.093054 
L 77.112066 285.086451 
L 78.205179 278.711289 
L 79.298292 276.194781 
L 80.391405 269.316244 
L 81.484518 258.411542 
L 82.577631 245.661268 
L 83.670744 224.522553 
L 84.763857 206.739263 
L 85.85697 186.607201 
L 88.043196 142.65218 
L 89.136309 124.868891 
L 90.229421 119.332673 
L 91.322534 104.40136 
L 92.415647 76.719773 
L 93.50876 67.324926 
L 94.601873 65.143887 
L 95.694986 54.574653 
L 96.788099 53.568 
L 97.881212 61.78846 
L 98.974325 79.571997 
L 100.067438 85.779152 
L 101.160551 87.456989 
L 102.253664 103.394707 
L 105.533003 130.405357 
L 106.626116 142.484446 
L 107.719229 161.609856 
L 108.812342 163.95863 
L 109.905455 152.047275 
L 110.998567 154.396049 
L 112.09168 159.932267 
L 113.184793 161.945572 
L 114.277906 159.932267 
L 115.371019 168.991645 
L 116.464132 184.761877 
L 117.557245 189.962627 
L 118.650358 202.712901 
L 119.743471 213.953319 
L 120.836584 215.463174 
L 121.929697 220.328456 
L 124.115923 236.433907 
L 125.209036 238.614947 
L 126.302149 241.131455 
L 127.395262 250.52655 
L 128.488375 256.398236 
L 129.581488 259.250212 
L 130.674601 257.069421 
L 131.767713 260.92805 
L 132.860826 265.289881 
L 135.047052 269.819694 
L 137.233278 280.892279 
L 138.326391 280.892279 
L 139.419504 278.54353 
L 140.512617 279.550133 
L 141.60573 277.704686 
L 142.698843 275.188178 
L 143.791956 274.684901 
L 144.885069 269.819694 
L 147.071295 251.532955 
L 148.164408 247.674326 
L 149.257521 242.64131 
L 150.350634 234.588584 
L 151.443747 229.555568 
L 152.53686 225.361471 
L 153.629972 220.49619 
L 154.723085 214.288787 
L 155.816198 200.867329 
L 156.909311 196.337764 
L 158.002424 193.150071 
L 159.095537 192.143419 
L 160.18865 190.298095 
L 161.281763 182.077387 
L 164.561102 115.809512 
L 167.840441 77.89416 
L 168.933554 90.141231 
L 170.026667 93.496658 
L 171.11978 88.79911 
L 172.212893 89.470047 
L 173.306006 96.1809 
L 174.399118 112.622068 
L 175.492231 122.352383 
L 176.585344 133.257333 
L 177.678457 151.543825 
L 178.77157 160.435469 
L 179.864683 167.984993 
L 180.957796 174.695846 
L 182.050909 176.205701 
L 183.144022 184.929611 
L 184.237135 186.607201 
L 185.330248 187.110403 
L 186.423361 186.607201 
L 187.516474 187.781587 
L 188.609587 191.304748 
L 189.7027 191.640216 
L 190.795813 194.659926 
L 191.888926 197.176434 
L 194.075152 200.364127 
L 195.168264 205.564877 
L 196.261377 206.571529 
L 197.35449 213.785585 
L 198.447603 219.992739 
L 199.540716 224.522553 
L 200.633829 223.683634 
L 201.726942 225.361471 
L 203.913168 238.950415 
L 205.006281 244.319147 
L 206.099394 248.680979 
L 207.192507 256.230502 
L 208.28562 262.270171 
L 209.378733 264.45121 
L 210.471846 265.625349 
L 211.564959 268.309839 
L 213.751185 277.536927 
L 214.844298 281.731099 
L 215.93741 286.596355 
L 217.030523 290.119442 
L 218.123636 292.803733 
L 219.216749 293.810336 
L 220.309862 293.139251 
L 221.402975 292.635949 
L 222.496088 292.300432 
L 223.589201 289.951683 
L 224.682314 288.777321 
L 225.775427 283.744305 
L 226.86854 279.717892 
L 229.054766 263.109089 
L 230.147879 255.559566 
L 231.240992 244.486881 
L 232.334105 238.782681 
L 233.427218 229.2201 
L 234.520331 217.811948 
L 235.613444 209.255771 
L 239.985895 160.603451 
L 242.172121 142.819914 
L 243.265234 141.813509 
L 244.358347 141.645775 
L 245.45146 138.961285 
L 246.544573 134.767188 
L 247.637686 138.961285 
L 248.730799 139.464736 
L 249.823912 141.981244 
L 250.917025 140.639123 
L 252.010138 147.181993 
L 253.103251 155.234719 
L 254.196364 159.764533 
L 255.289477 168.656177 
L 256.38259 170.501501 
L 257.475702 182.580838 
L 259.661928 187.278385 
L 262.941267 202.712901 
L 264.03438 200.867329 
L 265.127493 206.403795 
L 266.220606 216.13411 
L 267.313719 223.5159 
L 268.406832 225.361471 
L 269.499945 224.690287 
L 271.686171 226.703592 
L 272.779284 222.006045 
L 273.872397 220.999392 
L 274.96551 219.489537 
L 276.058623 222.173779 
L 277.151736 227.03906 
L 278.244848 229.891037 
L 279.337961 236.769624 
L 280.431074 240.124802 
L 281.524187 247.003389 
L 282.6173 250.52655 
L 283.710413 253.54626 
L 285.896639 263.94776 
L 286.989752 267.806389 
L 288.082865 270.994081 
L 289.175978 278.879073 
L 290.269091 284.583149 
L 291.362204 287.938476 
L 292.455317 290.119442 
L 293.54843 290.287225 
L 294.641543 288.609562 
L 295.734656 283.744305 
L 296.827769 278.040229 
L 299.013994 262.941107 
L 300.107107 252.371873 
L 302.293333 226.703592 
L 303.386446 219.657271 
L 304.479559 203.048369 
L 305.572672 190.298095 
L 306.665785 182.748572 
L 307.758898 177.547822 
L 308.852011 168.991645 
L 309.945124 142.148978 
L 311.038237 121.849181 
L 314.317576 67.828129 
L 315.410689 63.801766 
L 316.503802 64.976152 
L 317.596915 72.022474 
L 318.690028 82.256239 
L 319.78314 97.187304 
L 320.876253 109.769844 
L 321.969366 114.131923 
L 323.062479 126.378994 
L 324.155592 134.599454 
L 325.248705 134.263986 
L 326.341818 129.734172 
L 327.434931 128.224317 
L 328.528044 128.72752 
L 329.621157 130.069641 
L 330.71427 144.665485 
L 331.807383 156.409106 
L 333.993609 185.600548 
L 335.086722 194.659926 
L 336.179835 208.081384 
L 337.272948 211.940013 
L 338.366061 212.778932 
L 339.459174 216.973029 
L 340.552287 222.844963 
L 341.645399 233.749665 
L 342.738512 238.614947 
L 343.831625 244.486881 
L 344.924738 256.56597 
L 346.017851 264.786678 
L 347.110964 269.316244 
L 348.204077 271.161815 
L 349.29719 273.846057 
L 350.390303 278.207988 
L 351.483416 279.885676 
L 352.576529 279.046832 
L 353.669642 280.221194 
L 354.762755 279.382374 
L 355.855868 281.395581 
L 356.948981 277.201384 
L 358.042094 277.87247 
L 359.135207 277.536927 
L 360.22832 277.87247 
L 361.321433 281.395581 
L 362.414545 283.241003 
L 363.507658 287.099657 
L 364.600771 288.94508 
L 365.693884 291.293828 
L 366.786997 293.307035 
L 367.88011 294.145854 
L 368.973223 295.320241 
L 370.066336 295.488 
L 372.252562 292.132648 
L 373.345675 289.61614 
L 376.625014 272.67167 
L 377.718127 265.961065 
L 378.81124 252.875076 
L 379.904353 246.667921 
L 380.997466 241.466923 
L 382.090579 232.910995 
L 383.183691 226.032408 
L 384.276804 215.798642 
L 385.369917 215.463174 
L 386.46303 209.255771 
L 387.556143 205.732611 
L 388.649256 199.357474 
L 389.742369 194.492192 
L 390.835482 201.203045 
L 391.928595 202.20945 
L 393.021708 198.854272 
L 394.114821 198.518555 
L 395.207934 204.39049 
L 396.301047 207.745916 
L 397.39416 200.364127 
L 398.487273 198.854272 
L 398.487273 198.854272 
" style="fill:none;stroke:#1f77b4;stroke-linecap:square;stroke-width:1.5;"/>
   </g>
   <g id="line2d_14">
    <path clip-path="url(#p12fc66bb39)" d="M 73.832727 284.855403 
L 74.92584 285.655312 
L 76.018953 285.05388 
L 77.112066 285.139654 
L 78.205179 281.663993 
L 79.298292 276.606218 
L 80.391405 274.248484 
L 81.484518 260.281529 
L 82.577631 249.534645 
L 84.763857 204.378097 
L 85.85697 189.217203 
L 86.950083 164.866318 
L 89.136309 123.246791 
L 90.229421 118.304979 
L 91.322534 110.687928 
L 92.415647 80.766024 
L 93.50876 71.390833 
L 94.601873 72.796535 
L 95.694986 66.774866 
L 96.788099 64.585036 
L 97.881212 66.729303 
L 100.067438 89.543653 
L 101.160551 85.472672 
L 102.253664 100.473919 
L 103.346777 112.456135 
L 104.43989 120.59003 
L 105.533003 134.260253 
L 106.626116 137.163002 
L 107.719229 162.794279 
L 108.812342 172.225281 
L 109.905455 150.858342 
L 110.998567 152.285139 
L 112.09168 160.013456 
L 113.184793 164.10583 
L 114.277906 160.36719 
L 115.371019 164.291849 
L 116.464132 186.971718 
L 118.650358 198.984836 
L 119.743471 215.506486 
L 120.836584 217.84646 
L 121.929697 217.51727 
L 124.115923 235.673506 
L 125.209036 238.329874 
L 126.302149 239.638745 
L 127.395262 246.38485 
L 128.488375 255.59414 
L 129.581488 258.994799 
L 130.674601 255.852363 
L 131.767713 259.034058 
L 132.860826 263.411888 
L 133.953939 266.973286 
L 135.047052 268.656793 
L 136.140165 271.968527 
L 137.233278 278.904532 
L 138.326391 280.964577 
L 139.419504 279.419749 
L 140.512617 278.301182 
L 141.60573 278.940238 
L 142.698843 276.313342 
L 144.885069 272.535763 
L 145.978182 264.32262 
L 147.071295 253.151364 
L 148.164408 246.288214 
L 149.257521 243.187941 
L 150.350634 235.940394 
L 151.443747 227.015234 
L 152.53686 225.061794 
L 153.629972 221.211608 
L 154.723085 213.182878 
L 155.816198 200.728112 
L 156.909311 194.62057 
L 158.002424 192.137188 
L 159.095537 190.664225 
L 160.18865 193.188138 
L 161.281763 187.012205 
L 162.374876 164.351387 
L 163.467989 133.545924 
L 164.561102 118.073171 
L 165.654215 104.337633 
L 166.747328 92.908809 
L 167.840441 79.680248 
L 168.933554 86.186564 
L 170.026667 97.98915 
L 171.11978 88.81506 
L 172.212893 88.203428 
L 173.306006 92.316129 
L 174.399118 108.590463 
L 175.492231 121.543744 
L 176.585344 132.428731 
L 177.678457 152.610721 
L 178.77157 160.944496 
L 179.864683 171.967148 
L 180.957796 175.93574 
L 182.050909 177.40434 
L 183.144022 182.233724 
L 184.237135 190.865836 
L 185.330248 187.429562 
L 186.423361 185.832462 
L 187.516474 187.875058 
L 188.609587 191.044861 
L 189.7027 193.24729 
L 190.795813 191.463625 
L 191.888926 200.196382 
L 192.982039 197.440507 
L 194.075152 200.019685 
L 195.168264 206.130224 
L 196.261377 204.686201 
L 198.447603 219.701003 
L 199.540716 224.410373 
L 200.633829 224.470008 
L 201.726942 222.170156 
L 202.820055 230.420686 
L 203.913168 237.037585 
L 205.006281 242.734855 
L 206.099394 247.079784 
L 207.192507 252.682111 
L 208.28562 260.302528 
L 209.378733 264.643222 
L 210.471846 264.575791 
L 211.564959 266.388538 
L 213.751185 275.438415 
L 214.844298 279.762036 
L 215.93741 282.968765 
L 217.030523 286.912909 
L 218.123636 288.989858 
L 219.216749 290.156339 
L 220.309862 290.437175 
L 221.402975 289.857025 
L 222.496088 289.898117 
L 224.682314 287.670357 
L 225.775427 285.440558 
L 226.86854 281.334837 
L 227.961653 275.884029 
L 229.054766 265.727088 
L 230.147879 257.145029 
L 231.240992 246.257261 
L 233.427218 230.243583 
L 235.613444 207.149126 
L 236.706556 198.683625 
L 238.892782 172.410857 
L 241.079008 150.189538 
L 242.172121 142.524514 
L 243.265234 140.70202 
L 244.358347 141.07523 
L 245.45146 141.59173 
L 246.544573 133.734299 
L 247.637686 137.27959 
L 248.730799 142.503315 
L 249.823912 140.661666 
L 250.917025 143.581037 
L 252.010138 143.912779 
L 253.103251 155.355009 
L 254.196364 160.540665 
L 255.289477 169.388321 
L 256.38259 171.971236 
L 257.475702 180.022426 
L 258.568815 188.983999 
L 259.661928 186.745804 
L 261.848154 196.472085 
L 262.941267 204.350188 
L 264.03438 201.092108 
L 265.127493 203.303412 
L 266.220606 216.660488 
L 267.313719 223.336941 
L 268.406832 225.213222 
L 269.499945 223.600107 
L 270.593058 224.858377 
L 271.686171 227.114713 
L 272.779284 221.470861 
L 273.872397 218.960724 
L 274.96551 218.415595 
L 276.058623 221.064243 
L 277.151736 225.805303 
L 278.244848 228.07031 
L 279.337961 235.141243 
L 280.431074 239.093441 
L 282.6173 249.852899 
L 283.710413 251.375164 
L 284.803526 256.02949 
L 286.989752 267.088709 
L 288.082865 269.254509 
L 289.175978 274.200061 
L 290.269091 281.946811 
L 291.362204 284.910707 
L 292.455317 287.352906 
L 293.54843 288.285452 
L 294.641543 288.216631 
L 295.734656 285.066924 
L 296.827769 281.175369 
L 299.013994 265.653655 
L 300.107107 255.788396 
L 301.20022 240.345861 
L 302.293333 226.782309 
L 303.386446 216.253898 
L 304.479559 208.331221 
L 305.572672 188.053965 
L 306.665785 179.021963 
L 307.758898 179.931057 
L 308.852011 170.93789 
L 309.945124 148.527905 
L 311.038237 117.738707 
L 312.13135 108.046802 
L 314.317576 73.202904 
L 315.410689 70.57784 
L 316.503802 70.983626 
L 317.596915 73.198948 
L 318.690028 82.006651 
L 319.78314 93.891141 
L 320.876253 108.505135 
L 321.969366 115.492447 
L 323.062479 121.484321 
L 324.155592 139.332975 
L 325.248705 133.205036 
L 326.341818 131.973335 
L 327.434931 126.917499 
L 329.621157 128.914123 
L 330.71427 140.934216 
L 331.807383 159.485435 
L 332.900496 170.02938 
L 333.993609 187.65402 
L 335.086722 195.010277 
L 336.179835 207.385775 
L 337.272948 214.764696 
L 338.366061 212.714497 
L 339.459174 215.414912 
L 340.552287 221.274276 
L 342.738512 239.999579 
L 343.831625 241.878268 
L 344.924738 251.114756 
L 346.017851 263.235624 
L 347.110964 267.595777 
L 348.204077 270.787621 
L 349.29719 271.799803 
L 350.390303 276.202477 
L 351.483416 279.290463 
L 352.576529 279.423168 
L 353.669642 279.262934 
L 354.762755 279.257571 
L 355.855868 280.640564 
L 356.948981 279.103665 
L 358.042094 276.827827 
L 359.135207 277.339117 
L 360.22832 277.675309 
L 362.414545 281.404285 
L 363.507658 284.344847 
L 364.600771 286.506422 
L 366.786997 289.571247 
L 368.973223 291.238128 
L 371.159449 291.266887 
L 372.252562 290.117601 
L 373.345675 288.589262 
L 374.438788 286.251187 
L 375.531901 280.586737 
L 376.625014 275.909766 
L 377.718127 268.721626 
L 378.81124 256.163433 
L 379.904353 246.221655 
L 380.997466 241.391393 
L 383.183691 225.255905 
L 384.276804 214.779829 
L 385.369917 214.176795 
L 387.556143 204.827809 
L 388.649256 201.127774 
L 389.742369 190.504836 
L 390.835482 199.341144 
L 391.928595 203.531833 
L 393.021708 199.143758 
L 394.114821 196.800695 
L 395.207934 204.113891 
L 396.301047 210.545271 
L 397.39416 199.89341 
L 398.487273 199.212135 
L 398.487273 199.212135 
" style="fill:none;stroke:#ff7f0e;stroke-linecap:square;stroke-width:1.5;"/>
   </g>
   <g id="line2d_15">
    <path clip-path="url(#p12fc66bb39)" d="M 73.832727 286.211766 
L 74.92584 286.997262 
L 76.018953 286.371449 
L 77.112066 286.459789 
L 78.205179 283.070591 
L 79.298292 278.077697 
L 80.391405 275.665691 
L 82.577631 252.599587 
L 83.670744 232.861393 
L 84.763857 207.625896 
L 85.85697 192.097648 
L 86.950083 167.850154 
L 89.136309 126.906257 
L 90.229421 122.107485 
L 91.322534 113.535837 
L 92.415647 85.451859 
L 93.50876 75.19961 
L 94.601873 77.203451 
L 95.694986 73.192738 
L 96.788099 69.884831 
L 97.881212 72.521486 
L 98.974325 82.788497 
L 100.067438 94.740148 
L 101.160551 89.885661 
L 102.253664 103.773807 
L 103.346777 115.867026 
L 104.43989 123.682345 
L 105.533003 137.326095 
L 106.626116 140.440859 
L 107.719229 166.102892 
L 108.812342 176.229985 
L 109.905455 155.284811 
L 110.998567 155.819949 
L 112.09168 162.696043 
L 113.184793 166.821238 
L 114.277906 163.129078 
L 115.371019 167.030962 
L 116.464132 189.986475 
L 117.557245 196.995265 
L 118.650358 201.448966 
L 119.743471 218.219047 
L 120.836584 220.642143 
L 121.929697 219.746908 
L 124.115923 238.120368 
L 125.209036 240.574684 
L 126.302149 241.793864 
L 127.395262 248.909572 
L 128.488375 257.925545 
L 129.581488 260.985776 
L 130.674601 257.938225 
L 131.767713 261.041336 
L 132.860826 265.274434 
L 133.953939 268.705761 
L 135.047052 270.239451 
L 136.140165 273.575898 
L 137.233278 280.597675 
L 138.326391 282.379835 
L 139.419504 280.744299 
L 140.512617 279.616878 
L 141.60573 280.290989 
L 142.698843 277.654993 
L 144.885069 274.010478 
L 145.978182 266.858149 
L 147.071295 256.248151 
L 148.164408 248.430838 
L 149.257521 245.259422 
L 150.350634 238.191539 
L 151.443747 229.324132 
L 152.53686 227.223407 
L 153.629972 223.370845 
L 154.723085 215.628635 
L 155.816198 204.819515 
L 156.909311 197.185473 
L 158.002424 194.595608 
L 159.095537 193.140649 
L 160.18865 195.58264 
L 161.281763 189.511167 
L 162.374876 167.85795 
L 163.467989 136.997341 
L 164.561102 121.682028 
L 166.747328 95.989325 
L 167.840441 84.245887 
L 168.933554 89.520396 
L 170.026667 101.726611 
L 171.11978 92.781585 
L 172.212893 91.327235 
L 173.306006 95.348787 
L 174.399118 111.75872 
L 175.492231 124.915861 
L 176.585344 135.447073 
L 177.678457 156.178996 
L 178.77157 164.719423 
L 179.864683 174.631467 
L 180.957796 178.612206 
L 182.050909 180.5638 
L 183.144022 184.666426 
L 184.237135 194.22289 
L 185.330248 189.930305 
L 186.423361 188.618804 
L 187.516474 190.34514 
L 188.609587 193.403329 
L 189.7027 195.971073 
L 190.795813 193.927186 
L 191.888926 202.745117 
L 192.982039 199.985775 
L 194.075152 202.600305 
L 195.168264 208.468973 
L 196.261377 207.820058 
L 198.447603 221.98751 
L 199.540716 226.658043 
L 200.633829 226.746281 
L 201.726942 224.323399 
L 202.820055 232.961975 
L 203.913168 239.3489 
L 205.006281 245.007823 
L 206.099394 249.270677 
L 207.192507 254.930851 
L 208.28562 262.452541 
L 209.378733 266.512154 
L 210.471846 266.215754 
L 211.564959 268.015696 
L 213.751185 277.05312 
L 214.844298 281.299437 
L 215.93741 284.421771 
L 217.030523 288.38191 
L 218.123636 290.411486 
L 219.216749 291.535477 
L 220.309862 291.783691 
L 221.402975 291.188988 
L 222.496088 291.223827 
L 224.682314 288.979346 
L 225.775427 286.744232 
L 226.86854 282.709311 
L 227.961653 277.636851 
L 233.427218 232.750039 
L 235.613444 209.57485 
L 236.706556 201.525453 
L 238.892782 175.231747 
L 241.079008 153.039513 
L 242.172121 145.453983 
L 243.265234 143.848017 
L 244.358347 143.850879 
L 245.45146 144.360728 
L 246.544573 136.543234 
L 247.637686 140.41513 
L 248.730799 145.274288 
L 249.823912 143.577909 
L 250.917025 146.365051 
L 252.010138 147.05296 
L 253.103251 158.237998 
L 254.196364 163.388345 
L 255.289477 172.054863 
L 256.38259 175.335354 
L 257.475702 182.702751 
L 258.568815 192.936666 
L 259.661928 189.237905 
L 261.848154 199.107114 
L 262.941267 206.735924 
L 264.03438 204.526755 
L 265.127493 205.575691 
L 266.220606 219.301149 
L 267.313719 225.7033 
L 268.406832 227.579333 
L 269.499945 225.843821 
L 270.593058 227.027708 
L 271.686171 229.323255 
L 272.779284 224.140253 
L 273.872397 221.105634 
L 274.96551 220.631549 
L 276.058623 223.33289 
L 277.151736 228.075993 
L 278.244848 230.288328 
L 279.337961 237.629842 
L 280.431074 241.318604 
L 282.6173 252.036995 
L 283.710413 253.387528 
L 284.803526 258.097781 
L 286.989752 268.954273 
L 288.082865 270.868479 
L 289.175978 275.880278 
L 290.269091 283.62058 
L 291.362204 286.360796 
L 292.455317 288.759688 
L 293.54843 289.649893 
L 294.641543 289.55219 
L 295.734656 286.415384 
L 296.827769 282.555011 
L 297.920882 275.867259 
L 299.013994 267.978839 
L 300.107107 258.694251 
L 302.293333 229.614423 
L 303.386446 218.67585 
L 304.479559 211.64278 
L 305.572672 191.020351 
L 306.665785 181.721258 
L 307.758898 182.591608 
L 308.852011 173.497418 
L 309.945124 152.425377 
L 311.038237 122.204844 
L 312.13135 111.529533 
L 313.224463 93.149285 
L 314.317576 77.642435 
L 315.410689 74.762586 
L 316.503802 76.039182 
L 317.596915 78.362728 
L 318.690028 86.472978 
L 319.78314 97.203199 
L 320.876253 111.852476 
L 321.969366 118.704414 
L 323.062479 124.747673 
L 324.155592 142.439644 
L 325.248705 136.443806 
L 326.341818 134.822376 
L 327.434931 129.955911 
L 328.528044 130.746401 
L 329.621157 131.737051 
L 330.71427 144.389512 
L 331.807383 162.466362 
L 332.900496 172.894914 
L 333.993609 190.578229 
L 335.086722 198.324201 
L 336.179835 209.964047 
L 337.272948 217.763823 
L 338.366061 215.097539 
L 339.459174 217.63748 
L 340.552287 223.516672 
L 342.738512 242.461504 
L 343.831625 244.202161 
L 344.924738 253.639314 
L 346.017851 265.686051 
L 347.110964 269.47876 
L 348.204077 272.42557 
L 349.29719 273.273268 
L 350.390303 277.773238 
L 351.483416 280.754393 
L 352.576529 280.761638 
L 353.669642 280.5899 
L 354.762755 280.594652 
L 355.855868 282.028592 
L 356.948981 280.470028 
L 358.042094 278.147529 
L 359.135207 278.706635 
L 360.22832 279.03281 
L 362.414545 282.779842 
L 363.507658 285.779691 
L 364.600771 287.913175 
L 366.786997 290.956318 
L 368.973223 292.587495 
L 371.159449 292.590448 
L 372.252562 291.441965 
L 373.345675 289.91245 
L 374.438788 287.554323 
L 375.531901 282.164297 
L 376.625014 277.426058 
L 377.718127 270.76225 
L 378.81124 260.438507 
L 379.904353 248.572358 
L 380.997466 243.504968 
L 382.090579 236.062148 
L 383.183691 227.552259 
L 384.276804 217.847231 
L 385.369917 216.857463 
L 386.46303 212.410983 
L 387.556143 207.058138 
L 388.649256 203.587466 
L 389.742369 193.18641 
L 390.835482 202.103751 
L 391.928595 206.526682 
L 393.021708 202.064352 
L 394.114821 199.096521 
L 395.207934 206.540393 
L 396.301047 212.86212 
L 397.39416 204.429393 
L 398.487273 201.593681 
L 398.487273 201.593681 
" style="fill:none;stroke:#2ca02c;stroke-linecap:square;stroke-width:1.5;"/>
   </g>
   <g id="line2d_16">
    <path clip-path="url(#p12fc66bb39)" d="M 73.832727 283.262234 
L 74.92584 284.033242 
L 76.018953 283.599889 
L 77.112066 283.619567 
L 78.205179 280.230396 
L 79.298292 275.18772 
L 80.391405 272.834091 
L 81.484518 257.872692 
L 82.577631 247.246988 
L 84.763857 201.25398 
L 85.85697 186.391952 
L 86.950083 161.57577 
L 89.136309 118.565242 
L 90.229421 112.525886 
L 91.322534 107.73684 
L 92.415647 76.915841 
L 93.50876 68.00623 
L 94.601873 69.373151 
L 95.694986 63.308122 
L 96.788099 61.222156 
L 97.881212 63.099359 
L 100.067438 85.883592 
L 101.160551 82.31492 
L 102.253664 96.895161 
L 103.346777 109.132995 
L 104.43989 117.071195 
L 105.533003 130.532381 
L 106.626116 133.305102 
L 107.719229 159.112379 
L 108.812342 169.014142 
L 109.905455 147.446404 
L 110.998567 146.748883 
L 112.09168 157.042089 
L 113.184793 161.448325 
L 114.277906 157.721356 
L 115.371019 160.830664 
L 116.464132 183.762139 
L 118.650358 196.362235 
L 119.743471 212.826356 
L 120.836584 215.41428 
L 121.929697 215.164945 
L 124.115923 232.75179 
L 125.209036 236.018866 
L 126.302149 237.238313 
L 127.395262 242.774269 
L 128.488375 252.200858 
L 129.581488 256.433671 
L 130.674601 253.925684 
L 131.767713 256.499553 
L 132.860826 260.979502 
L 133.953939 264.891093 
L 135.047052 266.875298 
L 136.140165 269.950136 
L 137.233278 275.97696 
L 138.326391 279.29189 
L 140.512617 276.919021 
L 141.60573 277.516987 
L 142.698843 274.944719 
L 144.885069 271.078639 
L 145.978182 262.436178 
L 147.071295 250.990969 
L 148.164408 244.161067 
L 149.257521 241.182426 
L 150.350634 233.834632 
L 151.443747 224.750224 
L 152.53686 222.948054 
L 153.629972 219.062419 
L 154.723085 210.980688 
L 155.816198 197.829657 
L 156.909311 191.553487 
L 158.002424 189.850607 
L 159.095537 188.363946 
L 160.18865 190.898594 
L 161.281763 184.654034 
L 162.374876 161.26812 
L 163.467989 129.604233 
L 165.654215 99.470398 
L 166.747328 89.956227 
L 167.840441 76.293056 
L 168.933554 82.859292 
L 170.026667 94.786011 
L 171.11978 85.661395 
L 172.212893 85.332414 
L 173.306006 89.489794 
L 174.399118 104.965949 
L 175.492231 118.265797 
L 176.585344 128.754252 
L 177.678457 147.73497 
L 178.77157 157.767302 
L 179.864683 169.268145 
L 180.957796 173.246618 
L 182.050909 174.750116 
L 183.144022 179.649868 
L 184.237135 188.100332 
L 185.330248 185.031182 
L 186.423361 183.410193 
L 187.516474 185.506736 
L 188.609587 188.75689 
L 189.7027 190.918184 
L 190.795813 189.208839 
L 191.888926 197.744152 
L 192.982039 195.121544 
L 194.075152 197.738598 
L 195.168264 203.589708 
L 196.261377 202.270544 
L 198.447603 217.386217 
L 199.540716 222.078064 
L 200.633829 222.33287 
L 201.726942 220.02275 
L 203.913168 234.337608 
L 205.006281 240.035393 
L 206.099394 244.421964 
L 207.192507 249.524401 
L 208.28562 257.164184 
L 209.378733 262.249741 
L 210.471846 262.826333 
L 211.564959 264.559909 
L 214.844298 277.527694 
L 217.030523 284.62341 
L 218.123636 286.938718 
L 219.216749 288.250906 
L 220.309862 288.65656 
L 221.402975 288.199251 
L 222.496088 288.150023 
L 223.589201 287.239158 
L 224.682314 286.154234 
L 225.775427 284.038861 
L 226.86854 279.948126 
L 227.961653 274.348126 
L 229.054766 263.847129 
L 230.147879 255.189403 
L 231.240992 243.949863 
L 233.427218 228.054314 
L 235.613444 204.745502 
L 236.706556 196.245075 
L 238.892782 169.675544 
L 241.079008 146.755924 
L 242.172121 139.370773 
L 243.265234 135.909925 
L 244.358347 137.950168 
L 245.45146 138.494398 
L 246.544573 130.474844 
L 247.637686 132.705007 
L 248.730799 139.497033 
L 249.823912 136.977753 
L 250.917025 140.651207 
L 252.010138 139.447936 
L 253.103251 152.359463 
L 254.196364 157.820982 
L 255.289477 166.378704 
L 256.38259 169.153221 
L 257.475702 176.840908 
L 258.568815 185.971884 
L 259.661928 184.365578 
L 261.848154 194.163818 
L 262.941267 202.016708 
L 264.03438 198.510457 
L 265.127493 200.894206 
L 266.220606 213.712772 
L 267.313719 220.788185 
L 268.406832 222.996832 
L 269.499945 221.52748 
L 270.593058 222.593579 
L 271.686171 224.758949 
L 272.779284 219.221793 
L 273.872397 216.758268 
L 274.96551 216.364291 
L 276.058623 218.542036 
L 277.151736 223.297672 
L 278.244848 225.917477 
L 279.337961 232.028332 
L 281.524187 241.313277 
L 282.6173 247.177889 
L 283.710413 249.092632 
L 284.803526 253.347425 
L 286.989752 264.455271 
L 288.082865 267.376798 
L 289.175978 271.756835 
L 290.269091 278.899994 
L 291.362204 282.885387 
L 292.455317 285.350753 
L 293.54843 286.518688 
L 294.641543 286.570739 
L 295.734656 283.628523 
L 296.827769 279.791584 
L 299.013994 263.844364 
L 300.107107 253.703099 
L 301.20022 237.759155 
L 302.293333 224.279113 
L 303.386446 213.807647 
L 304.479559 205.735403 
L 305.572672 184.881874 
L 306.665785 176.31036 
L 307.758898 177.15721 
L 308.852011 168.342097 
L 309.945124 145.340648 
L 311.038237 112.168963 
L 312.13135 104.120356 
L 314.317576 69.7433 
L 315.410689 67.194274 
L 316.503802 67.561523 
L 317.596915 69.75921 
L 318.690028 78.610503 
L 319.78314 90.733956 
L 320.876253 105.170953 
L 321.969366 112.345666 
L 323.062479 117.292866 
L 324.155592 135.975575 
L 325.248705 129.982888 
L 326.341818 129.005479 
L 327.434931 122.889629 
L 328.528044 124.481493 
L 329.621157 125.631509 
L 330.71427 135.511112 
L 331.807383 156.494047 
L 332.900496 167.063708 
L 333.993609 184.932977 
L 335.086722 192.329035 
L 336.179835 204.715979 
L 337.272948 212.255667 
L 338.366061 210.514734 
L 339.459174 213.098756 
L 340.552287 218.952465 
L 341.645399 227.29385 
L 342.738512 237.192672 
L 343.831625 239.080991 
L 344.924738 247.12778 
L 346.017851 259.028997 
L 347.110964 265.129601 
L 348.204077 268.864421 
L 349.29719 270.174198 
L 350.390303 274.043578 
L 351.483416 277.443902 
L 352.576529 278.001403 
L 353.669642 277.823729 
L 354.762755 277.849747 
L 355.855868 278.957869 
L 356.948981 277.705728 
L 358.042094 275.446762 
L 359.135207 275.912094 
L 360.22832 276.216234 
L 361.321433 277.8014 
L 362.414545 279.778221 
L 364.600771 284.610118 
L 366.786997 287.593822 
L 367.88011 288.522118 
L 368.973223 289.280215 
L 370.066336 289.464015 
L 371.159449 289.492074 
L 372.252562 288.484285 
L 373.345675 287.068702 
L 374.438788 284.836986 
L 375.531901 279.105661 
L 376.625014 274.47414 
L 377.718127 267.04856 
L 378.81124 253.654105 
L 379.904353 243.963539 
L 380.997466 239.315505 
L 383.183691 222.996945 
L 384.276804 212.340521 
L 385.369917 210.864897 
L 386.46303 206.970343 
L 387.556143 202.628801 
L 388.649256 198.942784 
L 389.742369 188.088686 
L 390.835482 196.12642 
L 391.928595 201.141466 
L 393.021708 196.815797 
L 394.114821 194.592691 
L 396.301047 208.249092 
L 397.39416 196.778054 
L 398.487273 196.546287 
L 398.487273 196.546287 
" style="fill:none;stroke:#d62728;stroke-linecap:square;stroke-width:1.5;"/>
   </g>
   <g id="patch_3">
    <path d="M 57.6 307.584 
L 57.6 41.472 
" style="fill:none;stroke:#000000;stroke-linecap:square;stroke-linejoin:miter;stroke-width:0.8;"/>
   </g>
   <g id="patch_4">
    <path d="M 414.72 307.584 
L 414.72 41.472 
" style="fill:none;stroke:#000000;stroke-linecap:square;stroke-linejoin:miter;stroke-width:0.8;"/>
   </g>
   <g id="patch_5">
    <path d="M 57.6 307.584 
L 414.72 307.584 
" style="fill:none;stroke:#000000;stroke-linecap:square;stroke-linejoin:miter;stroke-width:0.8;"/>
   </g>
   <g id="patch_6">
    <path d="M 57.6 41.472 
L 414.72 41.472 
" style="fill:none;stroke:#000000;stroke-linecap:square;stroke-linejoin:miter;stroke-width:0.8;"/>
   </g>
   <g id="text_13">
    <!-- Plot of Train Data vs MCMC Uncertainty  -->
    <defs>
     <path d="M 19.671875 64.796875 
L 19.671875 37.40625 
L 32.078125 37.40625 
Q 38.96875 37.40625 42.71875 40.96875 
Q 46.484375 44.53125 46.484375 51.125 
Q 46.484375 57.671875 42.71875 61.234375 
Q 38.96875 64.796875 32.078125 64.796875 
z
M 9.8125 72.90625 
L 32.078125 72.90625 
Q 44.34375 72.90625 50.609375 67.359375 
Q 56.890625 61.8125 56.890625 51.125 
Q 56.890625 40.328125 50.609375 34.8125 
Q 44.34375 29.296875 32.078125 29.296875 
L 19.671875 29.296875 
L 19.671875 0 
L 9.8125 0 
z
" id="DejaVuSans-50"/>
     <path d="M 9.421875 75.984375 
L 18.40625 75.984375 
L 18.40625 0 
L 9.421875 0 
z
" id="DejaVuSans-6c"/>
     <path d="M 30.609375 48.390625 
Q 23.390625 48.390625 19.1875 42.75 
Q 14.984375 37.109375 14.984375 27.296875 
Q 14.984375 17.484375 19.15625 11.84375 
Q 23.34375 6.203125 30.609375 6.203125 
Q 37.796875 6.203125 41.984375 11.859375 
Q 46.1875 17.53125 46.1875 27.296875 
Q 46.1875 37.015625 41.984375 42.703125 
Q 37.796875 48.390625 30.609375 48.390625 
M 30.609375 56 
Q 42.328125 56 49.015625 48.375 
Q 55.71875 40.765625 55.71875 27.296875 
Q 55.71875 13.875 49.015625 6.21875 
Q 42.328125 -1.421875 30.609375 -1.421875 
Q 18.84375 -1.421875 12.171875 6.21875 
Q 5.515625 13.875 5.515625 27.296875 
Q 5.515625 40.765625 12.171875 48.375 
Q 18.84375 56 30.609375 56 
" id="DejaVuSans-6f"/>
     <path d="M 18.3125 70.21875 
L 18.3125 54.6875 
L 36.8125 54.6875 
L 36.8125 47.703125 
L 18.3125 47.703125 
L 18.3125 18.015625 
Q 18.3125 11.328125 20.140625 9.421875 
Q 21.96875 7.515625 27.59375 7.515625 
L 36.8125 7.515625 
L 36.8125 0 
L 27.59375 0 
Q 17.1875 0 13.234375 3.875 
Q 9.28125 7.765625 9.28125 18.015625 
L 9.28125 47.703125 
L 2.6875 47.703125 
L 2.6875 54.6875 
L 9.28125 54.6875 
L 9.28125 70.21875 
z
" id="DejaVuSans-74"/>
     <path id="DejaVuSans-20"/>
     <path d="M 37.109375 75.984375 
L 37.109375 68.5 
L 28.515625 68.5 
Q 23.6875 68.5 21.796875 66.546875 
Q 19.921875 64.59375 19.921875 59.515625 
L 19.921875 54.6875 
L 34.71875 54.6875 
L 34.71875 47.703125 
L 19.921875 47.703125 
L 19.921875 0 
L 10.890625 0 
L 10.890625 47.703125 
L 2.296875 47.703125 
L 2.296875 54.6875 
L 10.890625 54.6875 
L 10.890625 58.5 
Q 10.890625 67.625 15.140625 71.796875 
Q 19.390625 75.984375 28.609375 75.984375 
z
" id="DejaVuSans-66"/>
     <path d="M -0.296875 72.90625 
L 61.375 72.90625 
L 61.375 64.59375 
L 35.5 64.59375 
L 35.5 0 
L 25.59375 0 
L 25.59375 64.59375 
L -0.296875 64.59375 
z
" id="DejaVuSans-54"/>
     <path d="M 41.109375 46.296875 
Q 39.59375 47.171875 37.8125 47.578125 
Q 36.03125 48 33.890625 48 
Q 26.265625 48 22.1875 43.046875 
Q 18.109375 38.09375 18.109375 28.8125 
L 18.109375 0 
L 9.078125 0 
L 9.078125 54.6875 
L 18.109375 54.6875 
L 18.109375 46.1875 
Q 20.953125 51.171875 25.484375 53.578125 
Q 30.03125 56 36.53125 56 
Q 37.453125 56 38.578125 55.875 
Q 39.703125 55.765625 41.0625 55.515625 
z
" id="DejaVuSans-72"/>
     <path d="M 34.28125 27.484375 
Q 23.390625 27.484375 19.1875 25 
Q 14.984375 22.515625 14.984375 16.5 
Q 14.984375 11.71875 18.140625 8.90625 
Q 21.296875 6.109375 26.703125 6.109375 
Q 34.1875 6.109375 38.703125 11.40625 
Q 43.21875 16.703125 43.21875 25.484375 
L 43.21875 27.484375 
z
M 52.203125 31.203125 
L 52.203125 0 
L 43.21875 0 
L 43.21875 8.296875 
Q 40.140625 3.328125 35.546875 0.953125 
Q 30.953125 -1.421875 24.3125 -1.421875 
Q 15.921875 -1.421875 10.953125 3.296875 
Q 6 8.015625 6 15.921875 
Q 6 25.140625 12.171875 29.828125 
Q 18.359375 34.515625 30.609375 34.515625 
L 43.21875 34.515625 
L 43.21875 35.40625 
Q 43.21875 41.609375 39.140625 45 
Q 35.0625 48.390625 27.6875 48.390625 
Q 23 48.390625 18.546875 47.265625 
Q 14.109375 46.140625 10.015625 43.890625 
L 10.015625 52.203125 
Q 14.9375 54.109375 19.578125 55.046875 
Q 24.21875 56 28.609375 56 
Q 40.484375 56 46.34375 49.84375 
Q 52.203125 43.703125 52.203125 31.203125 
" id="DejaVuSans-61"/>
     <path d="M 9.421875 54.6875 
L 18.40625 54.6875 
L 18.40625 0 
L 9.421875 0 
z
M 9.421875 75.984375 
L 18.40625 75.984375 
L 18.40625 64.59375 
L 9.421875 64.59375 
z
" id="DejaVuSans-69"/>
     <path d="M 54.890625 33.015625 
L 54.890625 0 
L 45.90625 0 
L 45.90625 32.71875 
Q 45.90625 40.484375 42.875 44.328125 
Q 39.84375 48.1875 33.796875 48.1875 
Q 26.515625 48.1875 22.3125 43.546875 
Q 18.109375 38.921875 18.109375 30.90625 
L 18.109375 0 
L 9.078125 0 
L 9.078125 54.6875 
L 18.109375 54.6875 
L 18.109375 46.1875 
Q 21.34375 51.125 25.703125 53.5625 
Q 30.078125 56 35.796875 56 
Q 45.21875 56 50.046875 50.171875 
Q 54.890625 44.34375 54.890625 33.015625 
" id="DejaVuSans-6e"/>
     <path d="M 19.671875 64.796875 
L 19.671875 8.109375 
L 31.59375 8.109375 
Q 46.6875 8.109375 53.6875 14.9375 
Q 60.6875 21.78125 60.6875 36.53125 
Q 60.6875 51.171875 53.6875 57.984375 
Q 46.6875 64.796875 31.59375 64.796875 
z
M 9.8125 72.90625 
L 30.078125 72.90625 
Q 51.265625 72.90625 61.171875 64.09375 
Q 71.09375 55.28125 71.09375 36.53125 
Q 71.09375 17.671875 61.125 8.828125 
Q 51.171875 0 30.078125 0 
L 9.8125 0 
z
" id="DejaVuSans-44"/>
     <path d="M 2.984375 54.6875 
L 12.5 54.6875 
L 29.59375 8.796875 
L 46.6875 54.6875 
L 56.203125 54.6875 
L 35.6875 0 
L 23.484375 0 
z
" id="DejaVuSans-76"/>
     <path d="M 44.28125 53.078125 
L 44.28125 44.578125 
Q 40.484375 46.53125 36.375 47.5 
Q 32.28125 48.484375 27.875 48.484375 
Q 21.1875 48.484375 17.84375 46.4375 
Q 14.5 44.390625 14.5 40.28125 
Q 14.5 37.15625 16.890625 35.375 
Q 19.28125 33.59375 26.515625 31.984375 
L 29.59375 31.296875 
Q 39.15625 29.25 43.1875 25.515625 
Q 47.21875 21.78125 47.21875 15.09375 
Q 47.21875 7.46875 41.1875 3.015625 
Q 35.15625 -1.421875 24.609375 -1.421875 
Q 20.21875 -1.421875 15.453125 -0.5625 
Q 10.6875 0.296875 5.421875 2 
L 5.421875 11.28125 
Q 10.40625 8.6875 15.234375 7.390625 
Q 20.0625 6.109375 24.8125 6.109375 
Q 31.15625 6.109375 34.5625 8.28125 
Q 37.984375 10.453125 37.984375 14.40625 
Q 37.984375 18.0625 35.515625 20.015625 
Q 33.0625 21.96875 24.703125 23.78125 
L 21.578125 24.515625 
Q 13.234375 26.265625 9.515625 29.90625 
Q 5.8125 33.546875 5.8125 39.890625 
Q 5.8125 47.609375 11.28125 51.796875 
Q 16.75 56 26.8125 56 
Q 31.78125 56 36.171875 55.265625 
Q 40.578125 54.546875 44.28125 53.078125 
" id="DejaVuSans-73"/>
     <path d="M 9.8125 72.90625 
L 24.515625 72.90625 
L 43.109375 23.296875 
L 61.8125 72.90625 
L 76.515625 72.90625 
L 76.515625 0 
L 66.890625 0 
L 66.890625 64.015625 
L 48.09375 14.015625 
L 38.1875 14.015625 
L 19.390625 64.015625 
L 19.390625 0 
L 9.8125 0 
z
" id="DejaVuSans-4d"/>
     <path d="M 64.40625 67.28125 
L 64.40625 56.890625 
Q 59.421875 61.53125 53.78125 63.8125 
Q 48.140625 66.109375 41.796875 66.109375 
Q 29.296875 66.109375 22.65625 58.46875 
Q 16.015625 50.828125 16.015625 36.375 
Q 16.015625 21.96875 22.65625 14.328125 
Q 29.296875 6.6875 41.796875 6.6875 
Q 48.140625 6.6875 53.78125 8.984375 
Q 59.421875 11.28125 64.40625 15.921875 
L 64.40625 5.609375 
Q 59.234375 2.09375 53.4375 0.328125 
Q 47.65625 -1.421875 41.21875 -1.421875 
Q 24.65625 -1.421875 15.125 8.703125 
Q 5.609375 18.84375 5.609375 36.375 
Q 5.609375 53.953125 15.125 64.078125 
Q 24.65625 74.21875 41.21875 74.21875 
Q 47.75 74.21875 53.53125 72.484375 
Q 59.328125 70.75 64.40625 67.28125 
" id="DejaVuSans-43"/>
     <path d="M 8.6875 72.90625 
L 18.609375 72.90625 
L 18.609375 28.609375 
Q 18.609375 16.890625 22.84375 11.734375 
Q 27.09375 6.59375 36.625 6.59375 
Q 46.09375 6.59375 50.34375 11.734375 
Q 54.59375 16.890625 54.59375 28.609375 
L 54.59375 72.90625 
L 64.5 72.90625 
L 64.5 27.390625 
Q 64.5 13.140625 57.4375 5.859375 
Q 50.390625 -1.421875 36.625 -1.421875 
Q 22.796875 -1.421875 15.734375 5.859375 
Q 8.6875 13.140625 8.6875 27.390625 
z
" id="DejaVuSans-55"/>
     <path d="M 48.78125 52.59375 
L 48.78125 44.1875 
Q 44.96875 46.296875 41.140625 47.34375 
Q 37.3125 48.390625 33.40625 48.390625 
Q 24.65625 48.390625 19.8125 42.84375 
Q 14.984375 37.3125 14.984375 27.296875 
Q 14.984375 17.28125 19.8125 11.734375 
Q 24.65625 6.203125 33.40625 6.203125 
Q 37.3125 6.203125 41.140625 7.25 
Q 44.96875 8.296875 48.78125 10.40625 
L 48.78125 2.09375 
Q 45.015625 0.34375 40.984375 -0.53125 
Q 36.96875 -1.421875 32.421875 -1.421875 
Q 20.0625 -1.421875 12.78125 6.34375 
Q 5.515625 14.109375 5.515625 27.296875 
Q 5.515625 40.671875 12.859375 48.328125 
Q 20.21875 56 33.015625 56 
Q 37.15625 56 41.109375 55.140625 
Q 45.0625 54.296875 48.78125 52.59375 
" id="DejaVuSans-63"/>
     <path d="M 56.203125 29.59375 
L 56.203125 25.203125 
L 14.890625 25.203125 
Q 15.484375 15.921875 20.484375 11.0625 
Q 25.484375 6.203125 34.421875 6.203125 
Q 39.59375 6.203125 44.453125 7.46875 
Q 49.3125 8.734375 54.109375 11.28125 
L 54.109375 2.78125 
Q 49.265625 0.734375 44.1875 -0.34375 
Q 39.109375 -1.421875 33.890625 -1.421875 
Q 20.796875 -1.421875 13.15625 6.1875 
Q 5.515625 13.8125 5.515625 26.8125 
Q 5.515625 40.234375 12.765625 48.109375 
Q 20.015625 56 32.328125 56 
Q 43.359375 56 49.78125 48.890625 
Q 56.203125 41.796875 56.203125 29.59375 
M 47.21875 32.234375 
Q 47.125 39.59375 43.09375 43.984375 
Q 39.0625 48.390625 32.421875 48.390625 
Q 24.90625 48.390625 20.390625 44.140625 
Q 15.875 39.890625 15.1875 32.171875 
z
" id="DejaVuSans-65"/>
     <path d="M 32.171875 -5.078125 
Q 28.375 -14.84375 24.75 -17.8125 
Q 21.140625 -20.796875 15.09375 -20.796875 
L 7.90625 -20.796875 
L 7.90625 -13.28125 
L 13.1875 -13.28125 
Q 16.890625 -13.28125 18.9375 -11.515625 
Q 21 -9.765625 23.484375 -3.21875 
L 25.09375 0.875 
L 2.984375 54.6875 
L 12.5 54.6875 
L 29.59375 11.921875 
L 46.6875 54.6875 
L 56.203125 54.6875 
z
" id="DejaVuSans-79"/>
    </defs>
    <g transform="translate(115.666875 35.472)scale(0.12 -0.12)">
     <use xlink:href="#DejaVuSans-50"/>
     <use x="60.302734" xlink:href="#DejaVuSans-6c"/>
     <use x="88.085938" xlink:href="#DejaVuSans-6f"/>
     <use x="149.267578" xlink:href="#DejaVuSans-74"/>
     <use x="188.476562" xlink:href="#DejaVuSans-20"/>
     <use x="220.263672" xlink:href="#DejaVuSans-6f"/>
     <use x="281.445312" xlink:href="#DejaVuSans-66"/>
     <use x="316.650391" xlink:href="#DejaVuSans-20"/>
     <use x="348.4375" xlink:href="#DejaVuSans-54"/>
     <use x="409.302734" xlink:href="#DejaVuSans-72"/>
     <use x="450.416016" xlink:href="#DejaVuSans-61"/>
     <use x="511.695312" xlink:href="#DejaVuSans-69"/>
     <use x="539.478516" xlink:href="#DejaVuSans-6e"/>
     <use x="602.857422" xlink:href="#DejaVuSans-20"/>
     <use x="634.644531" xlink:href="#DejaVuSans-44"/>
     <use x="711.646484" xlink:href="#DejaVuSans-61"/>
     <use x="772.925781" xlink:href="#DejaVuSans-74"/>
     <use x="812.134766" xlink:href="#DejaVuSans-61"/>
     <use x="873.414062" xlink:href="#DejaVuSans-20"/>
     <use x="905.201172" xlink:href="#DejaVuSans-76"/>
     <use x="964.380859" xlink:href="#DejaVuSans-73"/>
     <use x="1016.480469" xlink:href="#DejaVuSans-20"/>
     <use x="1048.267578" xlink:href="#DejaVuSans-4d"/>
     <use x="1134.546875" xlink:href="#DejaVuSans-43"/>
     <use x="1204.371094" xlink:href="#DejaVuSans-4d"/>
     <use x="1290.650391" xlink:href="#DejaVuSans-43"/>
     <use x="1360.474609" xlink:href="#DejaVuSans-20"/>
     <use x="1392.261719" xlink:href="#DejaVuSans-55"/>
     <use x="1465.455078" xlink:href="#DejaVuSans-6e"/>
     <use x="1528.833984" xlink:href="#DejaVuSans-63"/>
     <use x="1583.814453" xlink:href="#DejaVuSans-65"/>
     <use x="1645.337891" xlink:href="#DejaVuSans-72"/>
     <use x="1686.451172" xlink:href="#DejaVuSans-74"/>
     <use x="1725.660156" xlink:href="#DejaVuSans-61"/>
     <use x="1786.939453" xlink:href="#DejaVuSans-69"/>
     <use x="1814.722656" xlink:href="#DejaVuSans-6e"/>
     <use x="1878.101562" xlink:href="#DejaVuSans-74"/>
     <use x="1917.310547" xlink:href="#DejaVuSans-79"/>
     <use x="1976.490234" xlink:href="#DejaVuSans-20"/>
    </g>
   </g>
   <g id="legend_1">
    <g id="patch_7">
     <path d="M 277.843437 108.1845 
L 407.72 108.1845 
Q 409.72 108.1845 409.72 106.1845 
L 409.72 48.472 
Q 409.72 46.472 407.72 46.472 
L 277.843437 46.472 
Q 275.843437 46.472 275.843437 48.472 
L 275.843437 106.1845 
Q 275.843437 108.1845 277.843437 108.1845 
z
" style="fill:#ffffff;opacity:0.8;stroke:#cccccc;stroke-linejoin:miter;"/>
    </g>
    <g id="line2d_17">
     <path d="M 279.843437 54.570438 
L 299.843437 54.570438 
" style="fill:none;stroke:#1f77b4;stroke-linecap:square;stroke-width:1.5;"/>
    </g>
    <g id="line2d_18"/>
    <g id="text_14">
     <!-- actual -->
     <defs>
      <path d="M 8.5 21.578125 
L 8.5 54.6875 
L 17.484375 54.6875 
L 17.484375 21.921875 
Q 17.484375 14.15625 20.5 10.265625 
Q 23.53125 6.390625 29.59375 6.390625 
Q 36.859375 6.390625 41.078125 11.03125 
Q 45.3125 15.671875 45.3125 23.6875 
L 45.3125 54.6875 
L 54.296875 54.6875 
L 54.296875 0 
L 45.3125 0 
L 45.3125 8.40625 
Q 42.046875 3.421875 37.71875 1 
Q 33.40625 -1.421875 27.6875 -1.421875 
Q 18.265625 -1.421875 13.375 4.4375 
Q 8.5 10.296875 8.5 21.578125 
M 31.109375 56 
z
" id="DejaVuSans-75"/>
     </defs>
     <g transform="translate(307.843437 58.070438)scale(0.1 -0.1)">
      <use xlink:href="#DejaVuSans-61"/>
      <use x="61.279297" xlink:href="#DejaVuSans-63"/>
      <use x="116.259766" xlink:href="#DejaVuSans-74"/>
      <use x="155.46875" xlink:href="#DejaVuSans-75"/>
      <use x="218.847656" xlink:href="#DejaVuSans-61"/>
      <use x="280.126953" xlink:href="#DejaVuSans-6c"/>
     </g>
    </g>
    <g id="line2d_19">
     <path d="M 279.843437 69.248563 
L 299.843437 69.248563 
" style="fill:none;stroke:#ff7f0e;stroke-linecap:square;stroke-width:1.5;"/>
    </g>
    <g id="line2d_20"/>
    <g id="text_15">
     <!-- pred. (mean) -->
     <defs>
      <path d="M 18.109375 8.203125 
L 18.109375 -20.796875 
L 9.078125 -20.796875 
L 9.078125 54.6875 
L 18.109375 54.6875 
L 18.109375 46.390625 
Q 20.953125 51.265625 25.265625 53.625 
Q 29.59375 56 35.59375 56 
Q 45.5625 56 51.78125 48.09375 
Q 58.015625 40.1875 58.015625 27.296875 
Q 58.015625 14.40625 51.78125 6.484375 
Q 45.5625 -1.421875 35.59375 -1.421875 
Q 29.59375 -1.421875 25.265625 0.953125 
Q 20.953125 3.328125 18.109375 8.203125 
M 48.6875 27.296875 
Q 48.6875 37.203125 44.609375 42.84375 
Q 40.53125 48.484375 33.40625 48.484375 
Q 26.265625 48.484375 22.1875 42.84375 
Q 18.109375 37.203125 18.109375 27.296875 
Q 18.109375 17.390625 22.1875 11.75 
Q 26.265625 6.109375 33.40625 6.109375 
Q 40.53125 6.109375 44.609375 11.75 
Q 48.6875 17.390625 48.6875 27.296875 
" id="DejaVuSans-70"/>
      <path d="M 45.40625 46.390625 
L 45.40625 75.984375 
L 54.390625 75.984375 
L 54.390625 0 
L 45.40625 0 
L 45.40625 8.203125 
Q 42.578125 3.328125 38.25 0.953125 
Q 33.9375 -1.421875 27.875 -1.421875 
Q 17.96875 -1.421875 11.734375 6.484375 
Q 5.515625 14.40625 5.515625 27.296875 
Q 5.515625 40.1875 11.734375 48.09375 
Q 17.96875 56 27.875 56 
Q 33.9375 56 38.25 53.625 
Q 42.578125 51.265625 45.40625 46.390625 
M 14.796875 27.296875 
Q 14.796875 17.390625 18.875 11.75 
Q 22.953125 6.109375 30.078125 6.109375 
Q 37.203125 6.109375 41.296875 11.75 
Q 45.40625 17.390625 45.40625 27.296875 
Q 45.40625 37.203125 41.296875 42.84375 
Q 37.203125 48.484375 30.078125 48.484375 
Q 22.953125 48.484375 18.875 42.84375 
Q 14.796875 37.203125 14.796875 27.296875 
" id="DejaVuSans-64"/>
      <path d="M 31 75.875 
Q 24.46875 64.65625 21.28125 53.65625 
Q 18.109375 42.671875 18.109375 31.390625 
Q 18.109375 20.125 21.3125 9.0625 
Q 24.515625 -2 31 -13.1875 
L 23.1875 -13.1875 
Q 15.875 -1.703125 12.234375 9.375 
Q 8.59375 20.453125 8.59375 31.390625 
Q 8.59375 42.28125 12.203125 53.3125 
Q 15.828125 64.359375 23.1875 75.875 
z
" id="DejaVuSans-28"/>
      <path d="M 52 44.1875 
Q 55.375 50.25 60.0625 53.125 
Q 64.75 56 71.09375 56 
Q 79.640625 56 84.28125 50.015625 
Q 88.921875 44.046875 88.921875 33.015625 
L 88.921875 0 
L 79.890625 0 
L 79.890625 32.71875 
Q 79.890625 40.578125 77.09375 44.375 
Q 74.3125 48.1875 68.609375 48.1875 
Q 61.625 48.1875 57.5625 43.546875 
Q 53.515625 38.921875 53.515625 30.90625 
L 53.515625 0 
L 44.484375 0 
L 44.484375 32.71875 
Q 44.484375 40.625 41.703125 44.40625 
Q 38.921875 48.1875 33.109375 48.1875 
Q 26.21875 48.1875 22.15625 43.53125 
Q 18.109375 38.875 18.109375 30.90625 
L 18.109375 0 
L 9.078125 0 
L 9.078125 54.6875 
L 18.109375 54.6875 
L 18.109375 46.1875 
Q 21.1875 51.21875 25.484375 53.609375 
Q 29.78125 56 35.6875 56 
Q 41.65625 56 45.828125 52.96875 
Q 50 49.953125 52 44.1875 
" id="DejaVuSans-6d"/>
      <path d="M 8.015625 75.875 
L 15.828125 75.875 
Q 23.140625 64.359375 26.78125 53.3125 
Q 30.421875 42.28125 30.421875 31.390625 
Q 30.421875 20.453125 26.78125 9.375 
Q 23.140625 -1.703125 15.828125 -13.1875 
L 8.015625 -13.1875 
Q 14.5 -2 17.703125 9.0625 
Q 20.90625 20.125 20.90625 31.390625 
Q 20.90625 42.671875 17.703125 53.65625 
Q 14.5 64.65625 8.015625 75.875 
" id="DejaVuSans-29"/>
     </defs>
     <g transform="translate(307.843437 72.748563)scale(0.1 -0.1)">
      <use xlink:href="#DejaVuSans-70"/>
      <use x="63.476562" xlink:href="#DejaVuSans-72"/>
      <use x="104.558594" xlink:href="#DejaVuSans-65"/>
      <use x="166.082031" xlink:href="#DejaVuSans-64"/>
      <use x="229.558594" xlink:href="#DejaVuSans-2e"/>
      <use x="261.345703" xlink:href="#DejaVuSans-20"/>
      <use x="293.132812" xlink:href="#DejaVuSans-28"/>
      <use x="332.146484" xlink:href="#DejaVuSans-6d"/>
      <use x="429.558594" xlink:href="#DejaVuSans-65"/>
      <use x="491.082031" xlink:href="#DejaVuSans-61"/>
      <use x="552.361328" xlink:href="#DejaVuSans-6e"/>
      <use x="615.740234" xlink:href="#DejaVuSans-29"/>
     </g>
    </g>
    <g id="line2d_21">
     <path d="M 279.843437 83.926688 
L 299.843437 83.926688 
" style="fill:none;stroke:#2ca02c;stroke-linecap:square;stroke-width:1.5;"/>
    </g>
    <g id="line2d_22"/>
    <g id="text_16">
     <!-- pred.(5th percen.) -->
     <defs>
      <path d="M 10.796875 72.90625 
L 49.515625 72.90625 
L 49.515625 64.59375 
L 19.828125 64.59375 
L 19.828125 46.734375 
Q 21.96875 47.46875 24.109375 47.828125 
Q 26.265625 48.1875 28.421875 48.1875 
Q 40.625 48.1875 47.75 41.5 
Q 54.890625 34.8125 54.890625 23.390625 
Q 54.890625 11.625 47.5625 5.09375 
Q 40.234375 -1.421875 26.90625 -1.421875 
Q 22.3125 -1.421875 17.546875 -0.640625 
Q 12.796875 0.140625 7.71875 1.703125 
L 7.71875 11.625 
Q 12.109375 9.234375 16.796875 8.0625 
Q 21.484375 6.890625 26.703125 6.890625 
Q 35.15625 6.890625 40.078125 11.328125 
Q 45.015625 15.765625 45.015625 23.390625 
Q 45.015625 31 40.078125 35.4375 
Q 35.15625 39.890625 26.703125 39.890625 
Q 22.75 39.890625 18.8125 39.015625 
Q 14.890625 38.140625 10.796875 36.28125 
z
" id="DejaVuSans-35"/>
      <path d="M 54.890625 33.015625 
L 54.890625 0 
L 45.90625 0 
L 45.90625 32.71875 
Q 45.90625 40.484375 42.875 44.328125 
Q 39.84375 48.1875 33.796875 48.1875 
Q 26.515625 48.1875 22.3125 43.546875 
Q 18.109375 38.921875 18.109375 30.90625 
L 18.109375 0 
L 9.078125 0 
L 9.078125 75.984375 
L 18.109375 75.984375 
L 18.109375 46.1875 
Q 21.34375 51.125 25.703125 53.5625 
Q 30.078125 56 35.796875 56 
Q 45.21875 56 50.046875 50.171875 
Q 54.890625 44.34375 54.890625 33.015625 
" id="DejaVuSans-68"/>
     </defs>
     <g transform="translate(307.843437 87.426688)scale(0.1 -0.1)">
      <use xlink:href="#DejaVuSans-70"/>
      <use x="63.476562" xlink:href="#DejaVuSans-72"/>
      <use x="104.558594" xlink:href="#DejaVuSans-65"/>
      <use x="166.082031" xlink:href="#DejaVuSans-64"/>
      <use x="229.558594" xlink:href="#DejaVuSans-2e"/>
      <use x="261.345703" xlink:href="#DejaVuSans-28"/>
      <use x="300.359375" xlink:href="#DejaVuSans-35"/>
      <use x="363.982422" xlink:href="#DejaVuSans-74"/>
      <use x="403.191406" xlink:href="#DejaVuSans-68"/>
      <use x="466.570312" xlink:href="#DejaVuSans-20"/>
      <use x="498.357422" xlink:href="#DejaVuSans-70"/>
      <use x="561.833984" xlink:href="#DejaVuSans-65"/>
      <use x="623.357422" xlink:href="#DejaVuSans-72"/>
      <use x="664.439453" xlink:href="#DejaVuSans-63"/>
      <use x="719.419922" xlink:href="#DejaVuSans-65"/>
      <use x="780.943359" xlink:href="#DejaVuSans-6e"/>
      <use x="844.322266" xlink:href="#DejaVuSans-2e"/>
      <use x="876.109375" xlink:href="#DejaVuSans-29"/>
     </g>
    </g>
    <g id="line2d_23">
     <path d="M 279.843437 98.604813 
L 299.843437 98.604813 
" style="fill:none;stroke:#d62728;stroke-linecap:square;stroke-width:1.5;"/>
    </g>
    <g id="line2d_24"/>
    <g id="text_17">
     <!-- pred.(95th percen.) -->
     <defs>
      <path d="M 10.984375 1.515625 
L 10.984375 10.5 
Q 14.703125 8.734375 18.5 7.8125 
Q 22.3125 6.890625 25.984375 6.890625 
Q 35.75 6.890625 40.890625 13.453125 
Q 46.046875 20.015625 46.78125 33.40625 
Q 43.953125 29.203125 39.59375 26.953125 
Q 35.25 24.703125 29.984375 24.703125 
Q 19.046875 24.703125 12.671875 31.3125 
Q 6.296875 37.9375 6.296875 49.421875 
Q 6.296875 60.640625 12.9375 67.421875 
Q 19.578125 74.21875 30.609375 74.21875 
Q 43.265625 74.21875 49.921875 64.515625 
Q 56.59375 54.828125 56.59375 36.375 
Q 56.59375 19.140625 48.40625 8.859375 
Q 40.234375 -1.421875 26.421875 -1.421875 
Q 22.703125 -1.421875 18.890625 -0.6875 
Q 15.09375 0.046875 10.984375 1.515625 
M 30.609375 32.421875 
Q 37.25 32.421875 41.125 36.953125 
Q 45.015625 41.5 45.015625 49.421875 
Q 45.015625 57.28125 41.125 61.84375 
Q 37.25 66.40625 30.609375 66.40625 
Q 23.96875 66.40625 20.09375 61.84375 
Q 16.21875 57.28125 16.21875 49.421875 
Q 16.21875 41.5 20.09375 36.953125 
Q 23.96875 32.421875 30.609375 32.421875 
" id="DejaVuSans-39"/>
     </defs>
     <g transform="translate(307.843437 102.104813)scale(0.1 -0.1)">
      <use xlink:href="#DejaVuSans-70"/>
      <use x="63.476562" xlink:href="#DejaVuSans-72"/>
      <use x="104.558594" xlink:href="#DejaVuSans-65"/>
      <use x="166.082031" xlink:href="#DejaVuSans-64"/>
      <use x="229.558594" xlink:href="#DejaVuSans-2e"/>
      <use x="261.345703" xlink:href="#DejaVuSans-28"/>
      <use x="300.359375" xlink:href="#DejaVuSans-39"/>
      <use x="363.982422" xlink:href="#DejaVuSans-35"/>
      <use x="427.605469" xlink:href="#DejaVuSans-74"/>
      <use x="466.814453" xlink:href="#DejaVuSans-68"/>
      <use x="530.193359" xlink:href="#DejaVuSans-20"/>
      <use x="561.980469" xlink:href="#DejaVuSans-70"/>
      <use x="625.457031" xlink:href="#DejaVuSans-65"/>
      <use x="686.980469" xlink:href="#DejaVuSans-72"/>
      <use x="728.0625" xlink:href="#DejaVuSans-63"/>
      <use x="783.042969" xlink:href="#DejaVuSans-65"/>
      <use x="844.566406" xlink:href="#DejaVuSans-6e"/>
      <use x="907.945312" xlink:href="#DejaVuSans-2e"/>
      <use x="939.732422" xlink:href="#DejaVuSans-29"/>
     </g>
    </g>
   </g>
  </g>
 </g>
 <defs>
  <clipPath id="p12fc66bb39">
   <rect height="266.112" width="357.12" x="57.6" y="41.472"/>
  </clipPath>
 </defs>
</svg>
